<?xml version="1.0" encoding="UTF-8"?>
<!DOCTYPE svg PUBLIC "-//W3C//DTD SVG 1.1//EN" "http://www.w3.org/Graphics/SVG/1.1/DTD/svg11.dtd">
<!-- Creator: CorelDRAW X8 -->
<svg xmlns="http://www.w3.org/2000/svg" xml:space="preserve" width="210mm" height="297mm" version="1.1" style="shape-rendering:geometricPrecision; text-rendering:geometricPrecision; image-rendering:optimizeQuality; fill-rule:evenodd; clip-rule:evenodd"
viewBox="0 0 21000 29700"
 xmlns:xlink="http://www.w3.org/1999/xlink">
 <defs>
  <style type="text/css">
   <![CDATA[
    .fil0 {fill:#FEFEFE}
   ]]>
  </style>
 </defs>
 <g id="Layer_x0020_1">
  <metadata id="CorelCorpID_0Corel-Layer"/>
  <g id="_2538967321552">
   <path class="fil0" d="M-647329 148388l151 -481944 1570 -7494 -736 -6395 1138 -6164 2376 -6309 -325 -1416 1713 -4068 -303 -1487 1114 -3631 1967 -4470 -493 -1622 1882 -2849 -70 -1317 1001 -2278 1847 -3504 -134 -1163 1086 -2326 1198 -3102 2017 -3145 28 -1149 1360 -1798 57 -980 1332 -1741 85 -1037 522 -1678 1621 -2474 1657 -2397c0,-3177 -951,-2658 1671,-2658l14 -515 747 -1635 1911 -2052 719 -2327 2030 -1967 875 -2122 2129 -1812 874 -2051 1029 -1967 2362 -1544 994 -1861 1065 -1869 1135 -1713 1156 -1657 2672 -1311 1255 -1650 1319 -1509 1290 -1466 1283 -1502 1361 -1487 1452 -1368 1480 -1318 1488 -1298 1438 -1318 1255 -1297 2042 -1565c0,-2492 -694,-1993 1564,-1993l1642 -1196 1817 -1087 1269 -1063 1797 -1606c0,-2696 -698,-2066 1918,-2066l2150 -888 1720 -2122 2024 -910 1502 -895 387 -63c0,-2698 -592,-1862 2397,-1862l1382 -740 628 -176c0,-2571 -547,-1735 2376,-1735l2376 -1706 1565 -627 655 -99c0,-2558 -497,-1607 2651,-1607l2715 -1516 2312 -1431 240 388c0,-2873 -570,-1834 2905,-1834l2411 -1254 924 310 1853 -1305 882 -84 3447 -2059 2616 -1022 839 303 3694 -2002 2411 -811 1515 35 2652 -1756 1541 367 4015 -2259 1283 871 4272 -1883 1396 494 4160 -1735 1415 346 5529 -2125 1900 736 7822 -2134 8989 745 7612 -1426c2687,-117 5681,-26 8400,-26l959803 65c1735,131 2291,249 3937,571 316,62 931,738 1153,384 220,-350 755,275 1124,432l8982 -736 7804 2125 1919 -727 5492 2116 1452 -109 3393 1498 2163 -529 4194 1918 1361 -835 3978 2223 1578 -112 2538 846 3814 2044 592 -302 2953 1691 1214 -275 2608 1001 3356 2052 980 -155 2235 1234 2912 1269 2869 1431 2708 1417 2594 1572c3114,0 2630,-945 2630,1565l719 57 1657 620 2277 1748c3069,0 2524,-895 2524,1742l486 120 1474 754 2058 1974 2130 832 1917 2122 1988 881 2059 945 1586 2341 1883 1015 1868 1015 1770 1121 1685 1135 1318 2672 1657 1178 1586 1283 1502 1276 1502 1304 1473 1305 1452 1381 1361 1467 1297 1445 1354 1481 1269 1565 1199 1614 1198 1107 303 162c2943,0 2440,-869 2440,1615l1085 1776 1030 1834 1050 1875 980 1770 2390 1677 917 1791 -170 369c2636,0 1999,-671 1999,1926l948 2047 900 1214 320 507c2644,0 1812,-575 1812,2376l712 1283 254 705c2531,0 1636,-509 1636,2510l1713 2341 1642 2305 628 1862 -64 942 1341 1835 48 858c2066,0 1389,-437 1389,1920l0 792c2098,0 1395,-438 1395,1986l-6 656c2239,0 1488,-467 1488,2122l-99 980 2129 3158 1072 2806 -423 649c2182,0 1424,-445 1424,2129l-35 1382 1685 2785 -296 1170 1734 2996 -346 1093 1685 3074 -296 1481 1946 4660 1375 4970 -543 2156 1504 3400 -115 1667 2367 6666 -978 2898 1741 8213c-1460,14824 -352,222278 -352,243056 0,16799 -1549,232764 825,243055l-2214 9355 193 1756 -1582 3738 103 4596 -1492 3327 515 2228 -3293 9560 261 1551 -1650 2940 297 1227 -1685 2898 267 1269 -1656 2658 -21 1508c0,2458 722,2031 -1368,2031l381 747 -3159 5845 49 1100c0,2496 724,2044 -1438,2044l-36 733 -1353 1890 -42 888 -1347 1860 -84 918 -1305 1799 7 979c-1111,3082 -1847,3952 -3710,7226 -1123,1974 -349,1173 -2137,3565 -1100,1471 -1455,1558 -2493,2604l-320 494c-323,790 -679,1912 -1247,2742 -1596,2333 -658,883 -2600,2456l191 357c-1694,3200 -2557,3448 -4489,6695 -897,1506 -1084,2373 -2229,3604 -2255,2422 227,194 -3195,2117l-190 84c-5846,10051 -12515,12732 -20130,20019 -5218,4993 -15586,12992 -22735,15972l-712 120c-313,257 -703,605 -931,779l-1827 1410c-817,567 -1867,1156 -2674,1628l-16079 7492 -916 -198 -6028 2933 -1354 -155 -2813 1650 -1099 -261 -3067 1699 -1389 -310 -8334 3074 -1326 -296 -4229 2062 -4590 -673 -3743 1594 -1416 -206 -6918 2071 -8080 -682c-7548,3153 -329017,1341 -383586,1341 -23023,0 -99174,-1269 -120936,-110l-4667 995c-171,-299 -594,366 -889,552l103 1417 1685 2750 -296 1036 2784 5908 -7 1579 1594 2588 -205 1205 1784 2962 -395 824 2898 6120 -120 1389 1713 2778 -324 994 2806 5950 -28 1551 1635 2616 -247 1177 1812 2989 -423 783 2926 6162 -148 1346 1727 2821 -338 965 2827 5979 -49 1502 1642 2665 -253 1135 1826 3031 -437 755 2939 6190 -162 1304 1735 2862 -346 924 2841 6021 -63 1473 1643 2694 -254 1092 1861 3074 -472 712 2968 6233 -190 1276 1762 2890 -374 882 2884 6063 -106 1445 1678 2721 -289 1065 2778 5880 0 1593 1593 2574 -204 1233 1776 2933 -387 853 2890 6092 -113 1403 1693 2763 -304 1023 2792 5922 -14 1565 1601 2601 -212 1192 1812 2975 -423 811 2905 6134 -127 1374 1720 2792 -331 980 2813 5965 -36 1544 1636 2622 -247 725 2859 6372 -5630 -2930 -7 30c-2444,0 -1998,706 -1998,-1419l-779 30c-2445,0 -1999,707 -1999,-1419l-779 24c-2437,0 -1992,705 -1992,-1413l-786 -12c-2336,0 -1902,671 -1902,-1377l-876 -12c-2335,0 -1902,671 -1902,-1376l-875 -25c-2326,0 -1896,669 -1896,-1364l-882 -24c-2326,0 -1896,668 -1896,-1365l-882 -30c-2318,0 -1890,666 -1890,-1359l-888 -36 -1884 -1353 -894 -36 -1835 -1353 -942 -60 -1830 -1329 -948 -60 -1830 -1329 -948 -66 -1823 -1323 -955 -72 -1817 -1316 -960 -73 -1818 -1316 -960 91c-2470,0 -2003,704 -2003,-1480l-775 91c-2470,0 -2002,704 -2002,-1480l-776 77c-2458,0 -1995,702 -1995,-1466l-783 71c-2449,0 -1988,699 -1988,-1460l-789 71c-2449,0 -1989,699 -1989,-1460l-789 64c-2385,0 -1925,674 -1925,-1453l-853 50c-2373,0 -1918,672 -1918,-1439l-860 43c-2364,0 -1910,670 -1910,-1431l-867 42c-2364,0 -1911,670 -1911,-1431l-867 35c-2355,0 -1904,668 -1904,-1424l-874 28c-2345,0 -1897,666 -1897,-1417l-881 -28 -1776 -1361 -1002 -35 -1769 -1354 -1008 -42 -1763 -1347 -1015 -49 -1756 -1340 -1022 -49 -1755 -1340 -1023 -56 -1748 -1332 -1029 -64 -1742 -1325 -1036 -127 -1671 -1262 -1107 -127 -1671 -1262 -1107 -127 -1664 -1262 -1114 -127 -1656 -1262 -1121 -127c-8396,-2501 -68600,-34217 -85879,-42944l-12486 -6929 -246 139c-2648,0 -2168,767 -2168,-1528l-610 139c-2647,0 -2168,767 -2168,-1528l-610 133c-2639,0 -2161,765 -2161,-1522l-617 388 -7974 -4554 -359 90c-2536,0 -2071,732 -2071,-1479l-707 78c-2526,0 -2065,730 -2065,-1467l-713 78c-2526,0 -2064,730 -2064,-1467l-713 73c-2519,0 -2059,727 -2059,-1462l-719 67c-2516,0 -2059,728 -2059,-1456l-719 61c-2461,0 -2004,706 -2004,-1450l-774 43c-2454,0 -2004,708 -2004,-1431l-774 30c-2444,0 -1998,706 -1998,-1419l-779 30c-2445,0 -1999,706 -1999,-1419l-779 30c-2445,0 -1999,706 -1999,-1419l-779 24c-2436,0 -1992,704 -1992,-1413l-786 -12c-2335,0 -1902,670 -1902,-1377l-875 -24c-2326,0 -1896,669 -1896,-1365l-882 -24c-2326,0 -1896,669 -1896,-1365l-882 -30c-2318,0 -1890,667 -1890,-1359l-888 -30c-2317,0 -1890,667 -1890,-1358l-888 -37 -1835 -1352 -942 -61 -1830 -1328 -948 -61 -1830 -1328 -948 -66 -1823 -1323 -955 -66 -1823 -1323 -954 -72 -1818 -1317 -960 99c-2480,0 -2010,706 -2010,-1488l-768 92c-2470,0 -2002,704 -2002,-1481l-776 85c-2461,0 -1995,702 -1995,-1473l-783 70c-2449,0 -1988,700 -1988,-1459l-789 70c-2449,0 -1989,700 -1989,-1459l-789 63c-2385,0 -1925,675 -1925,-1452l-853 49c-2373,0 -1918,673 -1918,-1438l-860 49c-2373,0 -1917,673 -1917,-1438l-860 42c-2364,0 -1911,671 -1911,-1431l-867 35c-2355,0 -1904,669 -1904,-1424l-874 36c-2354,0 -1904,668 -1904,-1425l-874 29c-2345,0 -1896,665 -1896,-1417l-882 -36 -1769 -1353 -1008 -43 -1763 -1346 -1015 -43 -1763 -1346 -1015 -49 -1755 -1340 -1023 -56 -1748 -1333 -1029 -56 -1749 -1333 -1029 -127 -1678 -1262 -1100 -49 -1763 -1340 -1015 -63 -1741 -1325 -1037 -71 -1727 -1318 -1050 -85 -4315 -2693 -1241 -106 -22239 -10738c-768,-372 -3254,-1503 -3896,-1904l-3025 -2530c-12779,0 -42181,-1762 -52784,897l-66425 -2286 -28020 325c-6427,-62 -15159,404 -19931,-1714l-6458 925 -8109 -2314 -1613 395 -5464 -1783 -1480 193 -3394 -1582 -3551 601 -8396 -3379 -1326 529 -2769 -1918 -1398 106c-1479,-399 -1793,-338 -3230,-962 -5093,-2212 -505,-110 -2946,-1922l-768 339 -2651 -1728 -1516 7c-2419,0 -1981,701 -1981,-1396l-797 -72 -1865 -1316 -912 345c-2151,-726 -1464,-452 -3296,-1472 -262,-146 -821,-235 -1018,-782 -204,-564 -663,-586 -1002,-869l-240 139c-2647,0 -2167,766 -2167,-1528l-611 381c-2091,-904 -1261,-495 -3064,-1605 -227,-140 -769,-235 -940,-746 -174,-523 -611,-544 -924,-808l-627 -28c-2573,-950 -466,493 -3763,-1701 -1597,-1062 -1499,-1385 -2554,-2438l-628 -155c-2952,-1356 -4128,-2424 -6650,-4166 -2053,-1418 -1925,-1048 -3442,-2117 -4847,-3414 -965,-40 -3409,-3284l-388 -513c-1112,-607 -3051,-1472 -4100,-2233 -3490,-2530 -1926,-1318 -3653,-4198l-580 -318 -30344 -34404 -211 -656 -4350 -6289 183 -275 -4160 -6669 -7 -790c-2165,0 -1466,463 -1466,-1988l77 -698c-2235,0 -1501,473 -1501,-2080l112 -912 -1322 -1866 -66 -846c-2058,0 -1375,433 -1375,-1931l-14 -1192 -3081 -5753 303 -846 -2961 -6098 183 -1396 -1593 -2771 204 -1332 -1558 -2835 169 -1720 -1805 -3835 416 -2162 -1539 -3394 151 -1191 -2044 -4364 655 -2035 -2179 -6299 790 -4117 -1721 -8383zm148943 -667185l-1963 -870 -6370 2169 -3413 -780 -3532 1692 -1326 -303 -4229 2061 -1748 -673 -3808 2143 -1332 -754 -4223 1932 -1015 -543 -3152 1679 -620 -290 -6325 2919 -1092 -141 -5852 2876 -917 -98c-1281,1091 510,180 -2712,2048l-18593 9098 -437 -35c-1617,1374 286,78 -2818,2340 -565,412 -1992,1291 -2647,1697 -1683,1044 -3445,2029 -5209,2823l-381 84c-2133,2395 -21907,16308 -32552,28163 -2946,3282 -3828,4896 -7229,8012 -2904,2660 -3879,4308 -7049,8176 -5478,6685 -6747,11552 -12512,17515l-169 634c-799,2056 99,852 -1654,3659 -925,1482 -1550,1889 -2343,2806l77 480c0,2370 665,1903 -1466,1903l-57 874 -1332 1742 -106 1036 -1283 1664 -155 1114 -2623 4597 113 959c0,2635 767,2164 -1502,2164l275 613 -3052 5845 197 1100 -4364 10166 423 945 -3201 8220 736 1502 -2125 4032 289 1524 -1678 4054 169 1501 -1557 3605 267 4729 -1656 3757 789 5965 -2178 12132 0 478531 2160 12115 -771 5999 1621 3723 -232 1990 2268 6343 -880 1245 2098 4311 -709 1595 2071 3960 -682 1263 3630 8459 -852 1030 1812 3137 -423 973 2919 5972 -141 1226 1854 2940 -465 755c2095,0 1376,-430 1376,2023l12 733c2162,0 1439,-451 1439,2045l-50 1100 6952 12789 -7 606 11287 17449 -176 381c1869,1522 924,355 2586,2449 332,419 1079,2259 1279,2726l302 127c2951,1986 861,-421 3602,3267l34969 35495c727,1929 -59,362 1706,1226l7720 5718 614 240c6635,1696 1463,2 3793,2538l373 106c2074,941 667,-72 3541,1826 4324,2855 293,242 2692,2235l712 119 6655 4047 289 -345c2061,830 1350,504 3146,1555 244,143 806,1050 990,750 189,-309 650,551 983,818l437 0c2440,0 2004,-711 2004,1389l774 -395 8848 4562 874 -339 6190 3116 754 -444 12239 4611 1650 -134 2891 1523 1276 -444 10145 3222 2355 -212 4589 1601 3744 -459 8115 1847 5774 -798c29134,2928 108272,1116 145833,1113 19929,-2 13403,-1849 29457,5917l6943 3948c223,-324 729,621 1093,932l7 -31c2480,0 2035,-720 2035,1419l743 -24c2472,0 2029,-718 2029,1413l749 -24c2472,0 2028,-718 2028,1413l750 -18c2469,0 2028,-719 2028,1407l749 -12c2415,0 1975,-698 1975,1401l803 6c2408,0 1974,-699 1974,1383l804 12c2400,0 1968,-697 1968,1377l810 12c2400,0 1968,-697 1968,1377l810 18c2392,0 1962,-695 1962,1371l815 18c2393,0 1963,-695 1963,1370l815 25c2384,0 1956,-693 1956,1364l822 73 1859 1316 919 73 1859 1316 918 79 1854 1310 924 -134c2636,0 2158,-763 2158,1523l620 -134c2636,0 2157,-763 2157,1523l621 -120c2624,0 2150,-761 2150,1509l628 -120c2569,0 2094,-739 2094,1509l683 -106c2558,0 2087,-737 2087,1494l691 -105c2557,0 2087,-737 2087,1494l691 -98c2548,0 2080,-735 2080,1487l698 -98c2548,0 2080,-735 2080,1487l697 -92c2539,0 2073,-732 2073,1481l705 -28c2393,0 1946,-686 1946,1417l832 -21c2390,0 1946,-686 1946,1410l832 -14c2381,0 1939,-684 1939,1403l839 -14c2381,0 1938,-684 1938,1403l839 -8c2372,0 1932,-681 1932,1396l846 0c2362,0 1925,-678 1925,1389l853 7c2291,0 1854,-651 1854,1382l924 7c2291,0 1854,-651 1854,1382l923 7c2285,0 1848,-648 1848,1382l930 7c2278,0 1840,-645 1840,1382l938 7c2271,0 1833,-643 1833,1382l945 7c2271,0 1833,-643 1833,1382l945 63 1713 1326 1064 63 1706 1325 1072 64 1706 1325 1072 64 1699 1325 1079 64 1699 1325 1078 64 1693 1325 1085 63c10294,3246 136890,68483 139876,70770l402 -30c2480,0 2035,-721 2035,1419l743 -24c2471,0 2028,-719 2028,1413l750 -18c2469,0 2028,-719 2028,1407l749 -18c2470,0 2029,-719 2029,1407l749 -12c2415,0 1974,-698 1974,1401l804 6c2408,0 1974,-699 1974,1383l804 12c2400,0 1968,-697 1968,1377l809 12c2401,0 1969,-697 1969,1376l809 19c2392,0 1962,-695 1962,1370l816 18c2392,0 1962,-694 1962,1371l816 24c2384,0 1956,-693 1956,1365l822 73 1859 1316 918 72 1860 1317 918 78 1854 1311 924 -134c2636,0 2157,-763 2157,1523l621 -134c2635,0 2157,-763 2157,1523l620 -120c2624,0 2151,-761 2151,1508l627 -119c2569,0 2094,-739 2094,1508l684 -105c2557,0 2087,-737 2087,1494l691 -106c2557,0 2087,-736 2087,1495l691 -99c2547,0 2079,-734 2079,1488l698 -99c2548,0 2080,-734 2080,1488l698 -92c2539,0 2073,-732 2073,1481l705 -28c2359,0 1911,-672 1911,1417l867 -21c2390,0 1946,-686 1946,1410l831 -15c2381,0 1939,-683 1939,1403l839 -14c2381,0 1939,-683 1939,1403l839 -7c2372,0 1932,-681 1932,1396l846 0c2362,0 1925,-679 1925,1389l853 7c2291,0 1854,-651 1854,1382l923 7c2292,0 1855,-651 1855,1382l923 7c2285,0 1847,-648 1847,1382l931 7c2278,0 1840,-646 1840,1382l938 7c2271,0 1833,-643 1833,1382l944 7c2272,0 1834,-643 1834,1381l944 64 1713 1325 1065 64 1706 1325 1072 64 1706 1325 1072 64 1699 1325 1078 63 1699 1326 1079 63 1692 1326 1086 253c7162,2612 14021,6689 21232,10373 4648,2375 17292,10644 20308,8818l127 -1255 -1791 -2911 402 -720 -3011 -6225 233 -1029 -2863 -5915 85 -1340 -1741 -2827 352 -804 -2989 -6140 211 -1114 -2834 -5831 57 -1438 -1699 -2729 310 -874 -2947 -6070 169 -1184 -2799 -5760 21 -1516 -1664 -2651 275 -959 -2904 -5986 127 -1269 -1784 -2897 395 -733 -3004 -6212 226 -1043 -2863 -5901 85 -1347 -1741 -2820 352 -803 -2961 -6141 183 -1114 -2834 -5831 57 -1438 -1699 -2728 310 -889 -2947 -6056 169 -1198 -1805 -2968 416 -663 -3046 -6282 268 -973 -2904 -5971 127 -1269 -1784 -2898 395 -733 -3004 -6211 226 -1044 -2863 -5901 85 -1354 -1741 -2813 352 -817 -2961 -6127 183 -1128 -2827 -5816 50 -1453 -1699 -2714 310 -895 -2947 -6050 169 -1198 -1805 -2968 416 -663 -3046 -6282 268 -973 -2897 -5971 120 -1283 -1756 -2884 367 -747 -3004 -6197 226 -1058 -1890 -3109c943,-4802 18860,-2778 28279,-2778l427778 0c5081,1 10268,117 15330,56 7297,-89 7885,-1316 14097,-1445l8073 -1833 3489 445 4844 -1834 2425 445 4519 -1883 2265 494 3291 -1522 958 133 3209 -1883 1810 494 3745 -2170 1340 781 2827 -1713 1100 324 3066 -1769 875 380 6070 -2989 994 212 5950 -3187 731 409c0,-2150 -446,-1425 2047,-1425l876 36 1902 -1323 888 -66c0,-2026 -428,-1359 1890,-1359l882 -30c0,-2039 -432,-1371 1895,-1371l409 -18 9314 -5591 394 36c2174,-2478 -2652,-902 3772,-2581l663 -197 11837 -8348 424 15c2379,-3257 -1555,238 3152,-3404 1183,-915 2223,-1185 3369,-1796l162 -356 4599 -5032c16670,-12169 21455,-24140 28572,-29394l261 -296c1346,-3209 696,-2022 2894,-4977l3790 -4315 84 -430c780,-1694 1805,-3551 2805,-5219 2726,-4542 2141,114 3192,-4555 136,-603 579,-630 863,-950l-106 -388c0,-2407 -674,-1931 1495,-1931l162 -846 8171 -15610 -28 -1057c0,-2475 -719,-2031 1417,-2031l-289 -747 3067 -6176 -346 -768 1735 -2891 -247 -1276 1636 -2841 -212 -1326 1601 -2820 -332 -1346c408,-1518 685,-3148 1253,-4628 2126,-5537 371,-963 1856,-3374l-514 -1720 1903 -5055 -664 -1890 2053 -5349 -879 -1595 2268 -7723 -844 -2000 2233 -9955 -139 -9489 0 -466667 139 -14571 -1528 -4873 139 -1945 -2295 -7777 906 -2545 -1657 -4400 268 -1568 -3325 -9543 547 -1523 -2241 -4032 853 -1255 -1657 -2912 268 -1241 -1671 -2926 282 -1177 -1798 -2989 409 -649c-2182,0 -1424,445 -1424,-2129l35 -1417 -1748 -2750 359 -620c-2239,0 -1473,461 -1473,-2158l84 -930 -1332 -1847 -57 -1269 -6852 -12620 -92 -705c-259,-312 -601,-708 -776,-935l-2016 -2707c-629,-910 -1442,-2235 -2150,-3368 -1086,-1740 -2450,-4039 -3398,-6174l7 -282c-1546,-1395 -1009,-772 -2602,-2648 -285,-335 -1024,-1354 -1279,-1698l-17259 -21483c-6755,-7857 -23090,-20805 -24313,-22500l-381 -282c-2874,-1310 -2066,-840 -4895,-2949l-4298 -3714 -529 -176c-6215,-1684 -1584,-82 -3659,-2602l-508 -49c-2267,-1014 -467,259 -3577,-1853 -4207,-2856 -142,-117 -2585,-2264l-782 -57 -8356 -4676c-187,-568 -676,-548 -1014,-823l-352 79c-2480,0 -2017,710 -2017,-1468l-761 289 -8439 -4455 -1283 35c-2574,0 -2130,758 -2130,-1424l-648 381 -2771 -1770 -1396 475 -15188 -6031 -1478 682 -9328 -3459 -1784 253 -3468 -1642 -3476 296 -4526 -1685 -3807 834 -8361 -2223 -5528 816c-37504,-3283 -85044,-825 -123611,-825 -247223,0 -494445,0 -741667,0 -38602,0 -86058,-2445 -123611,834l-5493 -825 -8396 2259z"/>
   <path class="fil0" d="M500965 -497445c-369,-157 -904,-782 -1124,-432 -222,354 -837,-322 -1153,-384 -1646,-322 -2202,-440 -3937,-571l-959803 -65c-2719,0 -5713,-91 -8400,26l-7612 1426 982029 0z"/>
   <path class="fil0" d="M-6822 313666c295,-186 718,-851 889,-552l4667 -995c21762,-1159 97913,110 120936,110 54569,0 376038,1812 383586,-1341l-507198 0 -4349 55 1469 2723z"/>
   <path class="fil0" d="M690364 140055l1528 -12229 0 -2879c-1485,-128431 0,-264078 0,-393225l0 -53811c-218,-1712 -666,-3288 -1528,-4523l0 466667z"/>
   <path class="fil0" d="M-48788 473388c-2986,-2287 -129582,-67524 -139876,-70770l4662 3414c279,148 650,316 935,460l25907 12983c380,190 1476,724 1856,915 282,142 633,337 915,479l6472 3226c283,142 637,328 920,469 284,142 636,335 920,478 284,142 653,301 938,443l60068 30185c11329,5711 24014,13018 36283,17718z"/>
   <path class="fil0" d="M-641442 -425857c5765,-5963 7034,-10830 12512,-17515 3170,-3868 4145,-5516 7049,-8176 3401,-3116 4283,-4730 7229,-8012 10645,-11855 30419,-25768 32552,-28163l-59342 61866z"/>
   <path class="fil0" d="M-302560 345611c-364,-311 -870,-1256 -1093,-932l-6943 -3948c-16054,-7766 -9528,-5919 -29457,-5917 -37561,3 -116699,1815 -145833,-1113 1261,2377 -2268,2407 9700,2222l144489 -38c8955,-81 6289,-926 11057,1047l12856 6548c375,171 690,327 1080,497l4144 1634z"/>
   <path class="fil0" d="M-44219 451039l-19474 -10746c-281,-142 -632,-337 -914,-479l-77977 -38648 12486 6929c17279,8727 77483,40443 85879,42944z"/>
   <path class="fil0" d="M-591759 294222l-34969 -35495c-2741,-3688 -651,-1281 -3602,-3267 6400,10782 25394,30605 36271,37440l2300 1322z"/>
   <path class="fil0" d="M580781 287157c7149,-2980 17517,-10979 22735,-15972 7615,-7287 14284,-9968 20130,-20019l-36740 31302c-255,165 -603,380 -858,544l-5267 4145z"/>
   <path class="fil0" d="M-369219 314563c-1107,-2180 1084,-2225 -6855,-2433l-59570 147 66425 2286z"/>
   <path class="fil0" d="M657170 -432449l-11978 -17019c-180,-214 -441,-529 -623,-740 -8614,-9956 -21809,-24095 -32852,-30570 1223,1695 17558,14643 24313,22500l17259 21483c255,344 994,1363 1279,1698 1593,1876 1056,1253 2602,2648z"/>
   <path class="fil0" d="M107043 549777c-3016,1826 -15660,-6443 -20308,-8818 -7211,-3684 -14070,-7761 -21232,-10373 3107,3300 15378,8696 20332,11199 4375,2210 6631,3316 11103,5563 4221,2121 6950,3983 11620,5207 0,-5587 270,-615 -1515,-2778z"/>
   <path class="fil0" d="M-287275 328838c-607,-619 -955,-1162 -2006,-1882 -7909,-5416 5233,2899 -1691,-1047l-2805 -1376c-288,-143 -661,-294 -949,-436l-21709 -10431 3025 2530c642,401 3128,1532 3896,1904l22239 10738z"/>
   <path class="fil0" d="M-570608 -494632l18593 -9098c3222,-1868 1431,-957 2712,-2048l-2531 724c-245,90 -13782,5008 -18774,10422z"/>
   <path class="fil0" d="M-591357 -450209l-1488 1298 -1480 1318 -1452 1368 -1361 1487 -1283 1502 -1290 1466 -1319 1509 -1255 1650 -2672 1311 -1156 1657 -1135 1713 -1065 1869 -994 1861 -2362 1544 -1029 1967 -874 2051 -2129 1812 -875 2122 -2030 1967 -719 2327 -1911 2052 -747 1635c2028,0 1521,383 747,-1635 2480,-733 2156,2015 1911,-2052 2167,-695 1686,-23 719,-2327 2667,-473 2333,2278 2030,-1967 2166,-501 1694,114 875,-2122 2630,-596 1907,2169 2129,-1812l874 -2051c2617,112 2008,589 1029,-1967 2885,-248 1901,2465 2362,-1544l994 -1861c2236,-149 1739,380 1065,-1869 2723,531 2125,926 1135,-1713 3102,997 2435,1309 1156,-1657 3229,166 2035,2807 2672,-1311l1255 -1650 1319 -1509 1290 -1466c1916,-57 1469,427 1283,-1502 2055,95 1585,575 1361,-1487 2065,224 1594,693 1452,-1368 1978,196 1499,652 1480,-1318l1488 -1298 1438 -1318 1255 -1297 -1255 1297 -1438 1318z"/>
   <path class="fil0" d="M-463664 312602c-1726,-2550 526,-912 -2871,-1598 -1042,-210 -4201,-184 -5403,-179 -3885,17 -7766,63 -11657,63 4772,2118 13504,1652 19931,1714z"/>
   <path class="fil0" d="M586421 -470182c977,2454 -1855,1801 2058,1974l2130 832c1047,2666 -1920,1481 1917,2122l1988 881c224,2376 -325,1828 2059,945 452,2887 -2307,1723 1586,2341l1883 1015c256,2122 -285,1655 1868,1015 -421,2690 -838,2091 1770,1121 -974,3104 -1275,2417 1685,1135 -175,3227 -2819,2054 1318,2672l1657 1178 1586 1283c29,1946 -454,1500 1502,1276 -124,2101 -600,1639 1502,1304 -276,2218 -738,1750 1473,1305 -387,2314 -858,1840 1452,1381 -466,2296 -941,1827 1361,1467 -427,2184 -890,1730 1297,1445 -308,2122 -773,1641 1354,1481 -260,1989 -709,1489 1269,1565l1199 1614 1198 1107 -1198 -1107 -1199 -1614 -1269 -1565 -1354 -1481 -1297 -1445 -1361 -1467 -1452 -1381 -1473 -1305 -1502 -1304 -1502 -1276 -1586 -1283 -1657 -1178 -1318 -2672 -1685 -1135 -1770 -1121 -1868 -1015 -1883 -1015 -1586 -2341 -2059 -945 -1988 -881 -1917 -2122 -2130 -832 -2058 -1974 -1474 -754 1474 754z"/>
   <path class="fil0" d="M-587275 267515c-1517,-2102 -16578,-16366 -24873,-27714l-5471 -6690 30344 34404z"/>
   <path class="fil0" d="M558558 298586l16079 -7492c807,-472 1857,-1061 2674,-1628l1827 -1410c228,-174 618,-522 931,-779l-8105 3893c-648,342 -2440,1257 -2740,1409 -4831,2440 -7533,2914 -10666,6007z"/>
   <path class="fil0" d="M617054 290055l27553 -26400c1033,-1144 268,-65 1889,-2143l3729 -5883c-7117,5254 -11902,17225 -28572,29394l-4599 5032z"/>
   <path class="fil0" d="M623836 251082c3422,-1923 940,305 3195,-2117 1145,-1231 1332,-2098 2229,-3604 1932,-3247 2795,-3495 4489,-6695 -3180,2541 -1503,715 -4686,5050l-5227 7366z"/>
   <path class="fil0" d="M626276 -435946c-1302,2962 -2043,2675 1085,1776 -934,2504 -1535,2078 1030,1834 -505,2026 -920,1440 1050,1875l980 1770c916,3907 -607,1027 2390,1677 -802,2238 -1335,1791 917,1791l-917 -1791 -2390 -1677 -980 -1770 -1050 -1875 -1030 -1834 -1085 -1776c0,-2484 503,-1615 -2440,-1615 0,3499 -803,2946 2440,1615z"/>
   <path class="fil0" d="M-645206 -353609l-1138 6164c3165,-1728 1510,854 1897,-2822 533,-5071 161,-1063 -759,-3342 3659,-1202 2376,-1972 2376,-6309l-2376 6309z"/>
   <path class="fil0" d="M665503 -418983c-1914,-4630 -4574,-9951 -8340,-13184 948,2135 2312,4434 3398,6174 708,1133 1521,2458 2150,3368l2016 2707c175,227 517,623 776,935z"/>
   <path class="fil0" d="M563571 -482477c1636,2006 -811,2147 2912,1269 1501,2182 -1029,2221 2869,1431 1373,2103 -1150,2169 2708,1417 1504,2138 -1328,1988 2594,1572 810,2219 23,1565 2630,1565 0,-2510 484,-1565 -2630,-1565l-2594 -1572 -2708 -1417 -2869 -1431 -2912 -1269 -2235 -1234c975,1786 -1718,1960 2235,1234z"/>
   <path class="fil0" d="M-670608 -332535l2178 -12132c-2546,1356 -2103,-609 -2178,2528l0 9604z"/>
   <path class="fil0" d="M637725 232617c1038,-1046 1393,-1133 2493,-2604 1788,-2392 1014,-1591 2137,-3565 1863,-3274 2599,-4144 3710,-7226l-6157 8910c-1443,2559 -1030,1872 -2183,4485z"/>
   <path class="fil0" d="M-668448 158111l-2160 -12115 0 8708c410,6018 -636,1030 2160,3407z"/>
   <path class="fil0" d="M-572745 -466410l-1720 2122 -2150 888c-2616,0 -1918,-630 -1918,2066 3048,0 2544,801 1918,-2066 2311,851 1705,1356 2150,-888 4315,396 1604,688 1720,-2122 2622,1116 2192,1800 2024,-910 1900,545 1502,985 1502,-895l-1502 895 -2024 910z"/>
   <path class="fil0" d="M561336 -508081c-1783,-1772 142,-667 -2277,-2024 -3594,-2015 -362,-290 -4006,-1543l-8905 -2464 15188 6031z"/>
   <path class="fil0" d="M-634321 249777l-11287 -17449c1053,2558 1120,3106 2490,5497 150,262 376,579 531,832 152,251 389,567 544,811 157,246 383,580 541,824l7181 9485z"/>
   <path class="fil0" d="M642139 -412286c-570,4140 -676,1314 1713,2341 -1123,4388 -1059,1854 1642,2305 -990,2236 -1626,1862 628,1862l-628 -1862 -1642 -2305 -1713 -2341c0,-3019 895,-2510 -1636,-2510 0,2628 -679,1892 1636,2510z"/>
   <path class="fil0" d="M688270 159499c3556,-1847 1336,1984 2329,-4096 61,-371 -96,-5116 -96,-5859l-2233 9955z"/>
   <path class="fil0" d="M657254 245611c2738,-2344 1343,-625 3677,-4283l1062 -1752c176,-322 376,-647 544,-981 1250,-2482 317,-658 1577,-3708 -284,320 -727,347 -863,950 -1051,4669 -466,13 -3192,4555 -1000,1668 -2025,3525 -2805,5219z"/>
   <path class="fil0" d="M665503 159132l2214 -9355c-3548,1859 -1282,-1886 -2310,4123 -57,334 96,4451 96,5232z"/>
   <path class="fil0" d="M-625325 -407153l-1621 2474 -522 1678 522 -1678c2657,-677 2699,1872 1621,-2474 2358,-1042 2301,1800 1657,-2397 2424,-573 1671,163 1671,-2658 -2622,0 -1671,-519 -1671,2658l-1657 2397z"/>
   <path class="fil0" d="M665665 231722l4312 -6405c433,-861 1583,-3123 1837,-3674l2022 -5531 -8171 15610z"/>
   <path class="fil0" d="M-526425 327555l-12239 -4611c1839,1683 -85,607 2483,1883 42,20 2419,932 3014,1135 2698,922 3289,1224 6742,1593z"/>
   <path class="fil0" d="M661893 -366304c-1696,5978 -225,4009 1375,4970l-1375 -4970 -1946 -4660c0,7062 -406,2140 1946,4660z"/>
   <path class="fil0" d="M611336 -481060l-3198 -3218c-2775,-2120 -3665,-2246 -5995,-3445l4298 3714c2829,2109 2021,1639 4895,2949z"/>
   <path class="fil0" d="M-581719 -487807c1764,-794 3526,-1779 5209,-2823 655,-406 2082,-1285 2647,-1697 3104,-2262 1201,-966 2818,-2340 -3351,1363 -828,66 -3685,1560l-6989 5300z"/>
   <path class="fil0" d="M544670 -513430c-1939,-1892 -233,-1226 -3484,-2501 -3541,-1389 -1722,-778 -5844,-958l9328 3459z"/>
   <path class="fil0" d="M-554802 -476830c-3148,0 -2651,-951 -2651,1607 2678,0 1898,683 2651,-1607 3969,509 1119,601 2715,-1516 4080,798 1317,667 2312,-1431l-2312 1431 -2715 1516z"/>
   <path class="fil0" d="M-565053 284344l-13501 -9567c2444,3244 -1438,-130 3409,3284 1517,1069 1389,699 3442,2117 2522,1742 3698,2810 6650,4166z"/>
   <path class="fil0" d="M518281 -518833c-1953,-3742 946,-1084 -2871,-2072 -1147,-297 -4175,-151 -5490,-151l8361 2223z"/>
   <path class="fil0" d="M-490053 311813c-2000,-3989 1006,-1082 -2881,-2156 -1083,-300 -3962,-158 -5228,-158l8109 2314z"/>
   <path class="fil0" d="M-489990 -521056c-332,0 -4237,-104 -4283,-94 -4231,968 -1819,-470 -4113,2353l8396 -2259z"/>
   <path class="fil0" d="M-549535 -479389c3142,0 2367,855 2905,-1834 3881,925 1442,700 2411,-1254l-2411 1254c-3475,0 -2905,-1039 -2905,1834z"/>
   <path class="fil0" d="M-660034 196999l-3630 -8459c470,3928 -607,1363 962,5010 1489,3459 350,1275 2668,3449z"/>
   <path class="fil0" d="M-583416 -457578l-1642 1196c-2258,0 -1564,-499 -1564,1993 2808,0 2319,688 1564,-1993 2492,771 2073,1323 1642,-1196 2163,524 1648,1016 1817,-1087l1269 -1063 -1269 1063 -1817 1087z"/>
   <path class="fil0" d="M686846 169222c3921,-2006 1018,978 2114,-2898 289,-1021 154,-3630 154,-4825l-2268 7723z"/>
   <path class="fil0" d="M579660 -474546c693,2535 -1912,2487 2277,1748 337,2524 -334,1742 2524,1742 0,-2637 545,-1742 -2524,-1742l-2277 -1748 -1657 -620 1657 620z"/>
   <path class="fil0" d="M-632347 -393151l-1198 3102 -1086 2326c1698,-939 2005,1419 1086,-2326 2262,-1603 2368,821 1198,-3102 2602,-1251 2017,1972 2017,-3145l-2017 3145z"/>
   <path class="fil0" d="M681838 192833c1614,-1723 2556,2876 1121,-3680 3495,-2895 648,1000 1988,-4322 -1485,2411 270,-2163 -1856,3374 -568,1480 -845,3110 -1253,4628z"/>
   <path class="fil0" d="M689114 -348001c0,-467 105,-3666 95,-3706 -1060,-4242 538,-1728 -2390,-4071l2295 7777z"/>
   <path class="fil0" d="M517751 -496056l-7804 -2125c1943,3559 -880,990 2894,1981 1073,281 3671,144 4910,144z"/>
   <path class="fil0" d="M590503 -494724c-3122,-3398 -3596,-3214 -9370,-5499 338,275 827,255 1014,823l8356 4676z"/>
   <path class="fil0" d="M-562049 -472791c-2923,0 -2376,-836 -2376,1735 2718,0 2055,730 2376,-1735 4175,720 1570,776 2376,-1706l1565 -627 -1565 627 -2376 1706z"/>
   <path class="fil0" d="M-558108 288638c-3464,-3770 -454,-1521 -6317,-4139 1055,1053 957,1376 2554,2438 3297,2194 1190,751 3763,1701z"/>
   <path class="fil0" d="M666481 -347445l-2367 -6666c0,8734 -312,4588 2367,6666z"/>
   <path class="fil0" d="M-640631 -370520l-1114 3631c1489,-1319 2620,2496 1114,-3631 2408,-2492 1967,2482 1967,-4470l-1967 4470z"/>
   <path class="fil0" d="M-578942 274264l-7753 -6431c1727,2880 163,1668 3653,4198 1049,761 2988,1626 4100,2233z"/>
   <path class="fil0" d="M-660886 -384501l4364 -10166c-3110,3323 -3243,5265 -4364,10166z"/>
   <path class="fil0" d="M672447 -405658l-4390 -9821c-1032,-1582 -1111,-1519 -2462,-2799l6852 12620z"/>
   <path class="fil0" d="M-490053 -498190l-7822 2134c454,0 3724,94 3748,88 4049,-935 1862,349 4074,-2222z"/>
   <path class="fil0" d="M-510463 331722l-10145 -3222c2975,2489 5718,2811 10145,3222z"/>
   <path class="fil0" d="M635557 -422928c-760,2335 -1310,1793 948,2047l900 1214 -900 -1214 -948 -2047c0,-2597 637,-1926 -1999,-1926 0,3057 -824,2608 1999,1926z"/>
   <path class="fil0" d="M-513664 307323c-1829,-1741 -301,-1242 -3437,-2418 -3695,-1386 -921,-480 -4959,-961l8396 3379z"/>
   <path class="fil0" d="M-546482 320611l-8848 -4562c2199,2238 -1448,117 3106,2576 2189,1182 -5,128 1995,909 3742,1461 134,140 3747,1077z"/>
   <path class="fil0" d="M583967 312277c2438,-968 3436,-1087 5750,-2458 3233,-1916 1070,-428 3564,-3133l-9314 5591z"/>
   <path class="fil0" d="M525162 -494667l-5492 -2116c0,3410 1444,2116 5492,2116z"/>
   <path class="fil0" d="M-491660 334499l-8115 -1847c1803,2870 -655,942 2881,1722 1221,269 3868,125 5234,125z"/>
   <path class="fil0" d="M-645608 -418758c793,-917 1418,-1324 2343,-2806 1753,-2807 855,-1603 1654,-3659 -3573,3276 -1644,757 -3997,6465z"/>
   <path class="fil0" d="M-665562 176166l-2268 -6343c0,8701 -206,4340 2268,6343z"/>
   <path class="fil0" d="M597447 -490550c-3173,-3673 -449,-1665 -6162,-4117 2443,2147 -1622,-592 2585,2264 3110,2112 1310,839 3577,1853z"/>
   <path class="fil0" d="M685672 176166c3322,0 2053,-1392 2053,-5349l-2053 5349z"/>
   <path class="fil0" d="M659947 184337l3293 -9560c-2416,2771 -2824,5172 -3293,9560z"/>
   <path class="fil0" d="M-663664 -375336l3201 -8220c-1374,1531 -1313,660 -2324,3433 -1261,3459 -480,1073 -877,4787z"/>
   <path class="fil0" d="M-645608 156771c0,-321 76,-4241 71,-4270 -967,-5544 250,-1933 -1792,-4113l1721 8383z"/>
   <path class="fil0" d="M-571320 308111c-2399,-1993 1632,620 -2692,-2235 -2874,-1898 -1467,-885 -3541,-1826 3109,3592 580,1709 6233,4061z"/>
   <path class="fil0" d="M533558 307018l8334 -3074c-3798,402 -1378,-426 -4883,894 -5298,1996 -1018,175 -3451,2180z"/>
   <path class="fil0" d="M-644219 167187c0,-8392 169,-4320 -2179,-6299l2179 6299z"/>
   <path class="fil0" d="M-500349 -519667c-8258,0 -4367,-197 -6370,2169l6370 -2169z"/>
   <path class="fil0" d="M667244 -336334l-1741 -8213c0,373 -77,4088 -72,4112 1017,5649 -311,1861 1813,4101z"/>
   <path class="fil0" d="M653743 -390529c-1444,4407 -1051,1819 1072,2806l-1072 -2806 -2129 -3158c0,5349 -620,2107 2129,3158z"/>
   <path class="fil0" d="M519670 332666l-8073 1833c425,0 3939,85 3981,77 3647,-703 2155,24 4092,-1910z"/>
   <path class="fil0" d="M650486 255333l6083 -8066c164,-311 391,-822 601,-1226l-3790 4315c-2198,2955 -1548,1768 -2894,4977z"/>
   <path class="fil0" d="M578003 -501323c-2033,-2069 1393,-83 -3053,-2507 -958,-522 -1021,-522 -1947,-897 -2681,-1085 -927,-352 -3439,-1051l8439 4455z"/>
   <path class="fil0" d="M-527553 302661c-1234,-1054 -184,-844 -2333,-1772 -2720,-1175 -617,-331 -3843,-1112 2441,1812 -2147,-290 2946,1922 1437,624 1751,563 3230,962z"/>
   <path class="fil0" d="M545819 -489767c1413,2670 -2053,2044 3814,2044l-3814 -2044 -2538 -846c991,1767 -1202,2077 2538,846z"/>
   <path class="fil0" d="M-540560 -483556c5481,0 2144,612 3447,-2059 3917,1268 1608,1002 2616,-1022l-2616 1022 -3447 2059z"/>
   <path class="fil0" d="M-499775 -496792l-5529 2125c6896,0 4024,632 5529,-2125z"/>
   <path class="fil0" d="M557000 -485608c1310,2657 -1991,2052 3356,2052l-3356 -2052 -2608 -1001c1006,1988 -1291,2254 2608,1001z"/>
   <path class="fil0" d="M598110 303944c2746,-1226 909,-116 3400,-1581l8437 -6767 -11837 8348z"/>
   <path class="fil0" d="M610371 295611c381,-222 961,-961 1154,-645l5367 -4555c-1146,611 -2186,881 -3369,1796 -4707,3642 -773,147 -3152,3404z"/>
   <path class="fil0" d="M518254 309499c-818,0 -3355,-87 -4040,152 -3963,1384 -195,-1107 -2878,1919l6918 -2071z"/>
   <path class="fil0" d="M-568832 -468278c2984,0 2387,833 2397,-1862l1382 -740 -1382 740c-2989,0 -2397,-836 -2397,1862z"/>
   <path class="fil0" d="M-151164 397387c-1387,-1513 -41,-1008 -3007,-2615 -2298,-1245 -2346,-924 -4967,-1939l7974 4554z"/>
   <path class="fil0" d="M541703 -490501l-3978 -2223c0,3490 -311,2223 3978,2223z"/>
   <path class="fil0" d="M-533658 -486334c5536,0 2119,607 3694,-2002 3632,1195 1462,794 2411,-811l-2411 811 -3694 2002z"/>
   <path class="fil0" d="M58565 502555l5630 2930 -2859 -6372 1036 3940c54,170 209,606 353,891 -256,-201 -772,-546 -936,-277 -245,403 -1116,-370 -1386,-463 -361,-125 -1234,-410 -1838,-649z"/>
   <path class="fil0" d="M633558 238309c1942,-1573 1004,-123 2600,-2456 568,-830 924,-1952 1247,-2742 -814,697 -437,-255 -1954,1898 -1461,2074 -243,299 -1893,3300z"/>
   <path class="fil0" d="M-647178 -333556c2221,-1642 899,369 1455,-2920 216,-1282 115,-3280 115,-4574l-1570 7494z"/>
   <path class="fil0" d="M-582333 301166l-7720 -5718c1279,1565 1018,1636 2630,2863 2248,1712 3018,1757 5090,2855z"/>
   <path class="fil0" d="M639537 -416784l712 1283 -712 -1283c0,-2951 832,-2376 -1812,-2376 0,2855 -782,2225 1812,2376z"/>
   <path class="fil0" d="M-630632 255333c-200,-467 -947,-2307 -1279,-2726 -1662,-2094 -717,-927 -2586,-2449 1591,2892 376,1362 1886,3284 2180,2775 410,577 1979,1891z"/>
   <path class="fil0" d="M-664344 181722l-2098 -4311c0,6952 -597,2964 2098,4311z"/>
   <path class="fil0" d="M-517830 -492760l-4015 2259c6621,0 2667,645 4015,-2259z"/>
   <path class="fil0" d="M683558 -375357c0,-6637 639,-2685 -2241,-4032l2241 4032z"/>
   <path class="fil0" d="M-636344 -383056l-1001 2278c1623,-937 2057,1711 1001,-2278 2396,-1742 1847,1592 1847,-3504l-1847 3504z"/>
   <path class="fil0" d="M-642830 173586c0,-6976 575,-3021 -2044,-4364l2044 4364z"/>
   <path class="fil0" d="M593675 306722c3306,-1442 1306,877 3772,-2581 -6424,1679 -1598,103 -3772,2581z"/>
   <path class="fil0" d="M684433 183111c2091,-2319 1903,3638 1903,-5055l-1903 5055z"/>
   <path class="fil0" d="M-514990 -516889c-6863,0 -2884,-585 -4229,2061l4229 -2061z"/>
   <path class="fil0" d="M532232 306722c-6863,0 -2883,-585 -4229,2062l4229 -2062z"/>
   <path class="fil0" d="M528003 331277l-4844 1834c6860,0 3536,454 4844,-1834z"/>
   <path class="fil0" d="M-541442 -508415l6325 -2919c-6125,0 -1981,-521 -3928,1981 -4866,-1329 -550,-451 -2397,938z"/>
   <path class="fil0" d="M-499775 309894c-1916,-1618 2720,-1783 -5464,-1783l5464 1783z"/>
   <path class="fil0" d="M601614 -487899c-2556,-3592 -473,-1149 -3659,-2602 2075,2520 -2556,918 3659,2602z"/>
   <path class="fil0" d="M-577926 303944c-2330,-2536 2842,-842 -3793,-2538 2201,3089 555,1156 3793,2538z"/>
   <path class="fil0" d="M62725 432448c0,-6131 540,-2007 -2073,-3638 1516,-5351 533,-630 -973,-2644l3046 6282z"/>
   <path class="fil0" d="M37725 367170c0,-6131 540,-2007 -2073,-3638 1516,-5351 533,-630 -973,-2644l3046 6282z"/>
   <path class="fil0" d="M534947 329839l-4519 1883c6935,0 3197,492 4519,-1883z"/>
   <path class="fil0" d="M32360 419222l-2968 -6233c0,5970 -526,1930 2037,3709 -1445,5113 -492,595 931,2524z"/>
   <path class="fil0" d="M-665053 -369802l2125 -4032c-2630,1856 -2125,-3113 -2125,4032z"/>
   <path class="fil0" d="M-621997 225891c-2596,-6267 -269,-3083 -4160,-6669l4160 6669z"/>
   <path class="fil0" d="M-563953 312277l-6655 -4047c3376,3705 683,1661 6655,4047z"/>
   <path class="fil0" d="M-142830 401305c0,-2295 479,-1528 -2168,-1528 0,2295 -480,1528 2168,1528z"/>
   <path class="fil0" d="M-145608 399916c0,-2294 480,-1528 -2168,-1528 0,2295 -479,1528 2168,1528z"/>
   <path class="fil0" d="M-549775 292972c0,-2295 480,-1528 -2167,-1528 0,2294 -480,1528 2167,1528z"/>
   <path class="fil0" d="M-526107 -514112c-7390,0 -2372,-453 -4223,1932l4223 -1932z"/>
   <path class="fil0" d="M-148386 398521c0,-2286 478,-1522 -2161,-1522 0,2287 -478,1522 2161,1522z"/>
   <path class="fil0" d="M-662982 187277l-2071 -3960c0,7049 -490,2106 2071,3960z"/>
   <path class="fil0" d="M-4562 495611c0,-2286 478,-1523 -2157,-1523 0,2286 -479,1523 2157,1523z"/>
   <path class="fil0" d="M-7340 494222c0,-2286 479,-1523 -2157,-1523 0,2286 -478,1523 2157,1523z"/>
   <path class="fil0" d="M-258729 367833c0,-2286 479,-1523 -2157,-1523 0,2286 -478,1523 2157,1523z"/>
   <path class="fil0" d="M-261506 366444c0,-2286 478,-1523 -2158,-1523 0,2286 -478,1523 2158,1523z"/>
   <path class="fil0" d="M-512275 -493772l-4272 1883c7429,0 2429,431 4272,-1883z"/>
   <path class="fil0" d="M536364 -491889l-4194 -1918c1850,2367 -3158,1918 4194,1918z"/>
   <path class="fil0" d="M-652440 -404389c-2269,0 -1502,-471 -1502,2164 2269,0 1502,471 1502,-2164z"/>
   <path class="fil0" d="M-544219 295956c-229,-246 -527,-987 -680,-744 -164,263 -591,-583 -821,-709 -1899,-1047 -850,-584 -3815,-1670 339,283 798,305 1002,869 197,547 756,636 1018,782 1832,1020 1145,746 3296,1472z"/>
   <path class="fil0" d="M-1791 496999c0,-2269 473,-1508 -2151,-1508 0,2270 -473,1508 2151,1508z"/>
   <path class="fil0" d="M-255958 369222c0,-2270 474,-1509 -2150,-1509 0,2270 -474,1509 2150,1509z"/>
   <path class="fil0" d="M-520967 -515501c-6823,0 -1959,-499 -3808,2143l3808 -2143z"/>
   <path class="fil0" d="M550225 325385l-3745 2170c6748,0 1894,509 3745,-2170z"/>
   <path class="fil0" d="M675225 -399454c0,-2619 766,-2158 -1473,-2158 0,2619 -766,2158 1473,2158z"/>
   <path class="fil0" d="M566497 320611c4246,-1083 -466,1270 3624,-1123 2337,-1367 674,-380 2326,-2064l-5950 3187z"/>
   <path class="fil0" d="M651713 -394667c0,-2589 751,-2122 -1488,-2122 0,2589 -751,2122 1488,2122z"/>
   <path class="fil0" d="M-253236 370611c0,-2248 475,-1509 -2094,-1509 0,2247 -476,1509 2094,1509z"/>
   <path class="fil0" d="M930 498388c0,-2247 475,-1508 -2094,-1508 0,2247 -475,1508 2094,1508z"/>
   <path class="fil0" d="M-627553 215746c0,-2553 734,-2080 -1501,-2080 0,2553 -734,2080 1501,2080z"/>
   <path class="fil0" d="M-247688 373388c0,-2231 470,-1494 -2087,-1494 0,2231 -470,1494 2087,1494z"/>
   <path class="fil0" d="M3701 499777c0,-2231 470,-1494 -2087,-1494 0,2231 -470,1494 2087,1494z"/>
   <path class="fil0" d="M-250466 371999c0,-2231 471,-1494 -2087,-1494 0,2231 -470,1494 2087,1494z"/>
   <path class="fil0" d="M6479 501166c0,-2231 470,-1495 -2087,-1495 0,2232 -471,1495 2087,1495z"/>
   <path class="fil0" d="M526614 -517982c-1742,-1958 2946,-1685 -4526,-1685l4526 1685z"/>
   <path class="fil0" d="M12027 503944c0,-2222 468,-1488 -2080,-1488 0,2222 -468,1488 2080,1488z"/>
   <path class="fil0" d="M9249 502555c0,-2222 468,-1488 -2079,-1488 0,2222 -469,1488 2079,1488z"/>
   <path class="fil0" d="M-242139 376166c0,-2222 468,-1487 -2080,-1487 0,2222 -468,1487 2080,1487z"/>
   <path class="fil0" d="M-244917 374777c0,-2222 468,-1487 -2080,-1487 0,2222 -468,1487 2080,1487z"/>
   <path class="fil0" d="M14798 505333c0,-2213 466,-1481 -2073,-1481 0,2213 -466,1481 2073,1481z"/>
   <path class="fil0" d="M-239369 377555c0,-2213 466,-1481 -2073,-1481 0,2213 -465,1481 2073,1481z"/>
   <path class="fil0" d="M-159497 392923c0,-2210 465,-1479 -2071,-1479 0,2211 -465,1479 2071,1479z"/>
   <path class="fil0" d="M55781 414322c-848,-3552 612,-595 -1116,-3868 -1133,-2146 -630,-973 -1888,-2343l3004 6211z"/>
   <path class="fil0" d="M80781 479600c-848,-3553 612,-596 -1116,-3868 -1133,-2147 -630,-973 -1888,-2344l3004 6212z"/>
   <path class="fil0" d="M30781 349030c-841,-3519 607,-606 -1114,-3858 -1135,-2145 -627,-968 -1890,-2339l3004 6197z"/>
   <path class="fil0" d="M105781 544891c-863,-3591 621,-574 -1121,-3874 -1136,-2153 -630,-972 -1890,-2351l3011 6225z"/>
   <path class="fil0" d="M655816 -384945c0,-2574 758,-2129 -1424,-2129 0,2574 -758,2129 1424,2129z"/>
   <path class="fil0" d="M568281 -505743c0,-2182 444,-1424 -2130,-1424 0,2182 -444,1424 2130,1424z"/>
   <path class="fil0" d="M678003 -392538c0,-2574 758,-2129 -1424,-2129 0,2574 -758,2129 1424,2129z"/>
   <path class="fil0" d="M-539418 323388l-6190 -3116c1614,1508 -124,810 2391,1975 2869,1330 453,302 3799,1141z"/>
   <path class="fil0" d="M674936 212277c1443,-1538 823,93 1941,-2355 1298,-2843 317,-513 1126,-3821l-3067 6176z"/>
   <path class="fil0" d="M-165053 390133c0,-2197 462,-1467 -2064,-1467 0,2197 -462,1467 2064,1467z"/>
   <path class="fil0" d="M-162275 391522c0,-2197 461,-1467 -2065,-1467 0,2197 -461,1467 2065,1467z"/>
   <path class="fil0" d="M-167830 388739c0,-2189 459,-1462 -2059,-1462 0,2189 -460,1462 2059,1462z"/>
   <path class="fil0" d="M-170608 387344c0,-2184 457,-1456 -2059,-1456 0,2184 -457,1456 2059,1456z"/>
   <path class="fil0" d="M559433 323388c3249,-782 695,553 3770,-1101 2115,-1138 944,-613 2300,-1888l-6070 2989z"/>
   <path class="fil0" d="M98836 526751c-816,-3390 574,-645 -1109,-3813 -1125,-2117 -640,-980 -1880,-2327l2989 6140z"/>
   <path class="fil0" d="M-220608 362376c0,-2194 470,-1488 -2010,-1488 0,2194 -470,1488 2010,1488z"/>
   <path class="fil0" d="M687725 -358323c0,-7364 281,-2646 -1657,-4400l1657 4400z"/>
   <path class="fil0" d="M-503519 333111l-4589 -1601c1649,1761 -2693,1601 4589,1601z"/>
   <path class="fil0" d="M16892 481813c0,-2184 468,-1480 -2003,-1480 0,2184 -467,1480 2003,1480z"/>
   <path class="fil0" d="M-223386 360980c0,-2184 468,-1481 -2002,-1481 0,2185 -468,1481 2002,1481z"/>
   <path class="fil0" d="M14114 480424c0,-2184 468,-1480 -2002,-1480 0,2184 -468,1480 2002,1480z"/>
   <path class="fil0" d="M580781 -500144c0,-2178 462,-1468 -2017,-1468 0,2178 -463,1468 2017,1468z"/>
   <path class="fil0" d="M-558545 315055c-333,-267 -794,-1127 -983,-818 -184,300 -746,-607 -990,-750 -1796,-1051 -1085,-725 -3146,-1555 223,252 511,336 658,765 156,456 575,598 794,722 1861,1062 1010,669 3667,1636z"/>
   <path class="fil0" d="M651663 208111c-2161,0 -1438,-452 -1438,2044 2162,0 1438,452 1438,-2044z"/>
   <path class="fil0" d="M-652503 217833c0,-2496 723,-2045 -1439,-2045 0,2496 -723,2045 1439,2045z"/>
   <path class="fil0" d="M-656719 -395767l3052 -5845c-1489,1507 -819,-103 -1960,2279 -1902,3966 -167,-119 -1092,3566z"/>
   <path class="fil0" d="M-226164 359584c0,-2175 466,-1473 -1995,-1473 0,2175 -466,1473 1995,1473z"/>
   <path class="fil0" d="M690503 -341183c0,-5526 486,-3491 -1528,-4873l1528 4873z"/>
   <path class="fil0" d="M22609 392833l-2939 -6190c828,3476 -556,651 1109,3864 1064,2055 693,1054 1830,2326z"/>
   <path class="fil0" d="M73836 461474c-814,-3383 551,-659 -1107,-3814 -1092,-2076 -677,-1026 -1854,-2327l2961 6141z"/>
   <path class="fil0" d="M48836 396182c-808,-3353 547,-668 -1106,-3804 -1093,-2075 -673,-1021 -1855,-2323l2961 6127z"/>
   <path class="fil0" d="M575225 316408c-2493,0 -2047,-725 -2047,1425 2494,0 2047,725 2047,-1425z"/>
   <path class="fil0" d="M12873 366444l-2926 -6162c806,3410 -539,685 1100,3849 1057,2040 697,1057 1826,2313z"/>
   <path class="fil0" d="M-506719 -495013l-4160 1735c7247,0 2335,376 4160,-1735z"/>
   <path class="fil0" d="M11336 479021c0,-2168 463,-1466 -1995,-1466 0,2168 -463,1466 1995,1466z"/>
   <path class="fil0" d="M-626164 218432c0,-2451 699,-1988 -1466,-1988 0,2451 -699,1988 1466,1988z"/>
   <path class="fil0" d="M-173386 385949c0,-2156 457,-1450 -2004,-1450 0,2156 -457,1450 2004,1450z"/>
   <path class="fil0" d="M551614 301321l6028 -2933c-3160,751 -750,-507 -3742,1084 -2041,1083 -1015,671 -2286,1849z"/>
   <path class="fil0" d="M8558 477626c0,-2160 461,-1460 -1988,-1460 0,2159 -461,1460 1988,1460z"/>
   <path class="fil0" d="M5781 476237c0,-2159 460,-1460 -1989,-1460 0,2159 -460,1460 1989,1460z"/>
   <path class="fil0" d="M-231719 356792c0,-2159 460,-1459 -1989,-1459 0,2159 -460,1459 1989,1459z"/>
   <path class="fil0" d="M-228942 358181c0,-2159 461,-1459 -1988,-1459 0,2159 -461,1459 1988,1459z"/>
   <path class="fil0" d="M-300518 346999c0,-2139 445,-1419 -2035,-1419 0,2140 -445,1419 2035,1419z"/>
   <path class="fil0" d="M-46351 474777c0,-2140 445,-1419 -2035,-1419 0,2140 -445,1419 2035,1419z"/>
   <path class="fil0" d="M675225 213024c-2136,0 -1417,-444 -1417,2031 2136,0 1417,445 1417,-2031z"/>
   <path class="fil0" d="M91892 508625c-783,-3239 518,-707 -1099,-3761 -1085,-2050 -681,-1028 -1848,-2309l2947 6070z"/>
   <path class="fil0" d="M66892 443333c-777,-3213 514,-714 -1097,-3751 -1088,-2050 -678,-1022 -1850,-2305l2947 6056z"/>
   <path class="fil0" d="M-294969 349777c0,-2131 444,-1413 -2028,-1413 0,2132 -443,1413 2028,1413z"/>
   <path class="fil0" d="M-43580 476166c0,-2132 443,-1413 -2028,-1413 0,2132 -443,1413 2028,1413z"/>
   <path class="fil0" d="M-297746 348388c0,-2131 443,-1413 -2029,-1413 0,2132 -443,1413 2029,1413z"/>
   <path class="fil0" d="M665503 232568c-2169,0 -1495,-476 -1495,1931 2169,0 1495,476 1495,-1931z"/>
   <path class="fil0" d="M-176164 384542c0,-2139 450,-1431 -2004,-1431 0,2139 -450,1431 2004,1431z"/>
   <path class="fil0" d="M41892 378049c-775,-3201 511,-717 -1097,-3745 -1088,-2048 -679,-1023 -1850,-2305l2947 6050z"/>
   <path class="fil0" d="M-656578 208111l-2919 -5972c1020,4271 -1158,-490 1077,3700 1075,2014 681,1021 1842,2272z"/>
   <path class="fil0" d="M-292191 351166c0,-2126 441,-1407 -2028,-1407 0,2126 -441,1407 2028,1407z"/>
   <path class="fil0" d="M-40802 477555c0,-2126 441,-1407 -2028,-1407 0,2126 -441,1407 2028,1407z"/>
   <path class="fil0" d="M-38024 478944c0,-2126 441,-1407 -2029,-1407 0,2126 -441,1407 2029,1407z"/>
   <path class="fil0" d="M-634497 200320c-809,-3299 528,-667 -1109,-3765 -1089,-2061 -693,-1043 -1852,-2333l2961 6098z"/>
   <path class="fil0" d="M55908 483111l-2905 -6134c796,3347 -511,708 1098,3826 1035,2004 722,1088 1807,2308z"/>
   <path class="fil0" d="M58558 502585c0,-2125 447,-1419 -1998,-1419 0,2125 -446,1419 1998,1419z"/>
   <path class="fil0" d="M-178942 383141c0,-2126 447,-1419 -1998,-1419 0,2125 -446,1419 1998,1419z"/>
   <path class="fil0" d="M55781 501196c0,-2125 446,-1419 -1999,-1419 0,2126 -446,1419 1999,1419z"/>
   <path class="fil0" d="M-184497 380363c0,-2125 446,-1419 -1999,-1419 0,2125 -446,1419 1999,1419z"/>
   <path class="fil0" d="M-181719 381752c0,-2126 446,-1419 -1999,-1419 0,2125 -446,1419 1999,1419z"/>
   <path class="fil0" d="M651614 207011l3159 -5845c-1625,1664 -781,-154 -2028,2348 -1250,2512 -369,683 -1131,3497z"/>
   <path class="fil0" d="M3123 340055l-2898 -6120c790,3318 -501,721 1097,3817 1028,1992 726,1093 1801,2303z"/>
   <path class="fil0" d="M53003 499801c0,-2117 444,-1413 -1992,-1413 0,2118 -445,1413 1992,1413z"/>
   <path class="fil0" d="M-187275 378968c0,-2117 444,-1413 -1992,-1413 0,2117 -444,1413 1992,1413z"/>
   <path class="fil0" d="M-552553 291825c-222,-260 -513,-1034 -657,-787 -151,258 -569,-613 -778,-738 -1758,-1053 -1109,-732 -3493,-1634 313,264 750,285 924,808 171,511 713,606 940,746 1803,1110 973,701 3064,1605z"/>
   <path class="fil0" d="M-643155 -361334c2091,-1830 1713,3074 1713,-4068l-1713 4068z"/>
   <path class="fil0" d="M36442 430333l-2884 -6063c762,3209 -478,759 1086,3776 1023,1973 729,1094 1798,2287z"/>
   <path class="fil0" d="M-653954 215055c0,-2453 719,-2023 -1376,-2023 0,2454 -719,2023 1376,2023z"/>
   <path class="fil0" d="M655760 198388c-2090,0 -1368,-427 -1368,2031 2090,0 1368,427 1368,-2031z"/>
   <path class="fil0" d="M-556104 316444c0,-2100 436,-1389 -2004,-1389 0,2099 -436,1389 2004,1389z"/>
   <path class="fil0" d="M46171 456722l-2890 -6092c782,3262 -485,735 1096,3792 1021,1977 734,1103 1794,2300z"/>
   <path class="fil0" d="M3003 474841c0,-2127 460,-1453 -1925,-1453 0,2127 -460,1453 1925,1453z"/>
   <path class="fil0" d="M-234497 355396c0,-2127 460,-1452 -1925,-1452 0,2127 -460,1452 1925,1452z"/>
   <path class="fil0" d="M-645531 -418278c-2131,0 -1466,-467 -1466,1903 2131,0 1466,467 1466,-1903z"/>
   <path class="fil0" d="M650231 -397445c0,-2424 703,-1986 -1395,-1986 0,2424 -703,1986 1395,1986z"/>
   <path class="fil0" d="M84947 490485c-745,-3081 465,-770 -1084,-3700 -1050,-1986 -715,-1066 -1820,-2286l2904 5986z"/>
   <path class="fil0" d="M-538664 298395c0,-2096 439,-1396 -1981,-1396 0,2097 -438,1396 1981,1396z"/>
   <path class="fil0" d="M-35301 480333c0,-2099 441,-1401 -1974,-1401 0,2099 -440,1401 1974,1401z"/>
   <path class="fil0" d="M-289467 352555c0,-2099 440,-1401 -1975,-1401 0,2099 -440,1401 1975,1401z"/>
   <path class="fil0" d="M-640053 184168c0,-6850 409,-1997 -1805,-3835l1805 3835z"/>
   <path class="fil0" d="M59947 425193c-742,-3057 460,-774 -1084,-3687 -1051,-1983 -716,-1066 -1820,-2284l2904 5971z"/>
   <path class="fil0" d="M-236718 378944c0,-2103 447,-1417 -1946,-1417 0,2102 -447,1417 1946,1417z"/>
   <path class="fil0" d="M-240053 352604c0,-2111 456,-1438 -1917,-1438 0,2111 -456,1438 1917,1438z"/>
   <path class="fil0" d="M225 473438c0,-2111 456,-1439 -1918,-1439 0,2111 -455,1439 1918,1439z"/>
   <path class="fil0" d="M-237275 353993c0,-2111 456,-1438 -1918,-1438 0,2111 -455,1438 1918,1438z"/>
   <path class="fil0" d="M34947 359915c-741,-3056 455,-778 -1083,-3688 -1044,-1974 -723,-1076 -1814,-2283l2897 5971z"/>
   <path class="fil0" d="M-666442 -364224l1678 -4054c-2040,1823 -1678,-3057 -1678,4054z"/>
   <path class="fil0" d="M20227 508111c0,-2096 444,-1410 -1946,-1410 0,2096 -445,1410 1946,1410z"/>
   <path class="fil0" d="M-233940 380333c0,-2096 444,-1410 -1946,-1410 0,2096 -444,1410 1946,1410z"/>
   <path class="fil0" d="M-32523 481722c0,-2082 434,-1383 -1974,-1383 0,2082 -434,1383 1974,1383z"/>
   <path class="fil0" d="M-286690 353944c0,-2082 434,-1383 -1974,-1383 0,2082 -434,1383 1974,1383z"/>
   <path class="fil0" d="M-631719 206919c-1036,-3786 1188,544 -1120,-3435 -1235,-2130 -581,-873 -1961,-2318l3081 5753z"/>
   <path class="fil0" d="M-242830 351208c0,-2101 453,-1431 -1911,-1431 0,2102 -453,1431 1911,1431z"/>
   <path class="fil0" d="M-2553 472042c0,-2102 454,-1431 -1910,-1431 0,2101 -454,1431 1910,1431z"/>
   <path class="fil0" d="M-5330 470653c0,-2102 453,-1431 -1911,-1431 0,2101 -453,1431 1911,1431z"/>
   <path class="fil0" d="M-669219 -350632l1656 -3757c-2167,1102 -1656,-2345 -1656,3757z"/>
   <path class="fil0" d="M-231169 381722c0,-2087 442,-1403 -1939,-1403 0,2086 -442,1403 1939,1403z"/>
   <path class="fil0" d="M25775 510888c0,-2086 442,-1403 -1939,-1403 0,2087 -442,1403 1939,1403z"/>
   <path class="fil0" d="M22997 509499c0,-2086 442,-1403 -1939,-1403 0,2087 -442,1403 1939,1403z"/>
   <path class="fil0" d="M-228392 383111c0,-2087 443,-1403 -1938,-1403 0,2086 -443,1403 1938,1403z"/>
   <path class="fil0" d="M-548386 -505680l5852 -2876c-3786,925 403,-1073 -3600,1069 -1936,1036 -1071,726 -2252,1807z"/>
   <path class="fil0" d="M-283918 355333c0,-2074 432,-1377 -1968,-1377 0,2074 -432,1377 1968,1377z"/>
   <path class="fil0" d="M-281140 356722c0,-2074 432,-1377 -1968,-1377 0,2074 -432,1377 1968,1377z"/>
   <path class="fil0" d="M-26973 484499c0,-2073 432,-1376 -1969,-1376 0,2073 -432,1376 1969,1376z"/>
   <path class="fil0" d="M-29751 483111c0,-2074 432,-1377 -1968,-1377 0,2073 -432,1377 1968,1377z"/>
   <path class="fil0" d="M-248386 348424c0,-2093 451,-1425 -1904,-1425 0,2093 -450,1425 1904,1425z"/>
   <path class="fil0" d="M-245608 349812c0,-2092 451,-1424 -1904,-1424 0,2093 -451,1424 1904,1424z"/>
   <path class="fil0" d="M-8108 469257c0,-2092 451,-1424 -1904,-1424 0,2092 -451,1424 1904,1424z"/>
   <path class="fil0" d="M17414 506722c0,-2089 448,-1417 -1911,-1417 0,2088 -448,1417 1911,1417z"/>
   <path class="fil0" d="M103003 537637c-995,-4113 1114,499 -1072,-3649 -1013,-1924 -749,-1108 -1791,-2266l2863 5915z"/>
   <path class="fil0" d="M-278368 358111c0,-2066 430,-1371 -1962,-1371 0,2065 -431,1371 1962,1371z"/>
   <path class="fil0" d="M-24202 485888c0,-2065 430,-1370 -1962,-1370 0,2065 -430,1370 1962,1370z"/>
   <path class="fil0" d="M-21424 487277c0,-2065 430,-1371 -1962,-1371 0,2066 -430,1371 1962,1371z"/>
   <path class="fil0" d="M-275590 359499c0,-2065 430,-1370 -1963,-1370 0,2065 -430,1370 1963,1370z"/>
   <path class="fil0" d="M28546 512277c0,-2077 440,-1396 -1932,-1396 0,2077 -440,1396 1932,1396z"/>
   <path class="fil0" d="M-225621 384499c0,-2077 440,-1396 -1932,-1396 0,2078 -440,1396 1932,1396z"/>
   <path class="fil0" d="M78003 472345c-983,-4050 1105,485 -1072,-3638 -1014,-1921 -749,-1106 -1791,-2263l2863 5901z"/>
   <path class="fil0" d="M53003 407067c-983,-4049 1105,485 -1072,-3637 -1014,-1922 -749,-1106 -1791,-2264l2863 5901z"/>
   <path class="fil0" d="M26677 403944l-2841 -6021c747,3124 -432,798 1081,3744 980,1906 772,1150 1760,2277z"/>
   <path class="fil0" d="M-251164 347028c0,-2083 449,-1417 -1896,-1417 0,2082 -449,1417 1896,1417z"/>
   <path class="fil0" d="M-10886 467861c0,-2083 449,-1417 -1897,-1417 0,2083 -448,1417 1897,1417z"/>
   <path class="fil0" d="M-18652 488666c0,-2058 428,-1365 -1956,-1365 0,2058 -428,1365 1956,1365z"/>
   <path class="fil0" d="M-272819 360888c0,-2057 428,-1364 -1956,-1364 0,2057 -428,1364 1956,1364z"/>
   <path class="fil0" d="M-222850 385888c0,-2067 437,-1389 -1925,-1389 0,2068 -437,1389 1925,1389z"/>
   <path class="fil0" d="M31317 513666c0,-2068 437,-1389 -1925,-1389 0,2068 -438,1389 1925,1389z"/>
   <path class="fil0" d="M648836 -400223c0,-2357 677,-1920 -1389,-1920 0,2358 -677,1920 1389,1920z"/>
   <path class="fil0" d="M-630330 210042c0,-2364 682,-1931 -1375,-1931 0,2364 -683,1931 1375,1931z"/>
   <path class="fil0" d="M71058 454219c-891,-3671 1033,369 -1060,-3587 -994,-1879 -766,-1124 -1774,-2244l2834 5831z"/>
   <path class="fil0" d="M96058 519497c-891,-3671 1033,369 -1060,-3587 -994,-1879 -766,-1124 -1774,-2244l2834 5831z"/>
   <path class="fil0" d="M16941 377555l-2827 -5979c731,3052 -412,821 1075,3711 969,1883 782,1161 1752,2268z"/>
   <path class="fil0" d="M-667598 167833l-1621 -3723c0,6055 -499,2621 1621,3723z"/>
   <path class="fil0" d="M46058 388927c-877,-3607 1019,351 -1058,-3575 -987,-1868 -772,-1132 -1769,-2241l2827 5816z"/>
   <path class="fil0" d="M-190053 377543c0,-2047 434,-1377 -1902,-1377 0,2047 -433,1377 1902,1377z"/>
   <path class="fil0" d="M47447 496987c0,-2047 434,-1376 -1902,-1376 0,2047 -433,1376 1902,1376z"/>
   <path class="fil0" d="M50225 498376c0,-2047 434,-1377 -1902,-1377 0,2048 -434,1377 1902,1377z"/>
   <path class="fil0" d="M59983 494222l-2813 -5965c723,3026 -401,835 1071,3703 957,1864 791,1174 1742,2262z"/>
   <path class="fil0" d="M583558 312295c-2327,0 -1895,-668 -1895,1371 2327,0 1895,669 1895,-1371z"/>
   <path class="fil0" d="M523413 308111c-6008,0 -2642,-491 -3743,1594l3743 -1594z"/>
   <path class="fil0" d="M-510132 -518278c-5809,0 -2435,-512 -3532,1692l3532 -1692z"/>
   <path class="fil0" d="M544670 327061l-3209 1883c5377,0 2120,550 3209,-1883z"/>
   <path class="fil0" d="M7198 351166l-2806 -5950c720,3001 -391,842 1070,3691 950,1851 798,1183 1736,2259z"/>
   <path class="fil0" d="M44670 495586c0,-2033 429,-1364 -1896,-1364 0,2033 -430,1364 1896,1364z"/>
   <path class="fil0" d="M-192830 376142c0,-2034 429,-1365 -1896,-1365 0,2034 -430,1365 1896,1365z"/>
   <path class="fil0" d="M41892 494198c0,-2034 430,-1365 -1896,-1365 0,2033 -430,1365 1896,1365z"/>
   <path class="fil0" d="M-195608 374753c0,-2034 430,-1365 -1896,-1365 0,2034 -430,1365 1896,1365z"/>
   <path class="fil0" d="M89114 501371c-811,-3332 957,259 -1048,-3534 -965,-1827 -791,-1155 -1751,-2226l2799 5760z"/>
   <path class="fil0" d="M50239 467833l-2792 -5922c1001,4157 -1084,-530 1068,3669 938,1829 808,1197 1724,2253z"/>
   <path class="fil0" d="M664114 164626l1582 -3738c-2068,1102 -1582,-2260 -1582,3738z"/>
   <path class="fil0" d="M-198386 373358c0,-2025 428,-1359 -1890,-1359 0,2026 -428,1359 1890,1359z"/>
   <path class="fil0" d="M580781 313696c-2318,0 -1890,-667 -1890,1359 2317,0 1890,667 1890,-1359z"/>
   <path class="fil0" d="M39114 492803c0,-2026 428,-1359 -1890,-1359 0,2025 -428,1359 1890,1359z"/>
   <path class="fil0" d="M-201164 371969c0,-2025 428,-1358 -1890,-1358 0,2025 -427,1358 1890,1358z"/>
   <path class="fil0" d="M40503 441444l-2778 -5880c935,3895 -1036,-440 1059,3639 930,1809 814,1201 1719,2241z"/>
   <path class="fil0" d="M34024 515055c0,-2033 437,-1382 -1854,-1382 0,2033 -438,1382 1854,1382z"/>
   <path class="fil0" d="M-217365 388666c0,-2033 437,-1382 -1854,-1382 0,2033 -438,1382 1854,1382z"/>
   <path class="fil0" d="M-220143 387277c0,-2033 437,-1382 -1854,-1382 0,2033 -437,1382 1854,1382z"/>
   <path class="fil0" d="M36802 516444c0,-2033 437,-1382 -1855,-1382 0,2033 -437,1382 1855,1382z"/>
   <path class="fil0" d="M-2546 324777l-2784 -5908c991,4103 -1073,-522 1067,3657 930,1815 816,1207 1717,2251z"/>
   <path class="fil0" d="M39572 517833c0,-2030 438,-1382 -1847,-1382 0,2030 -437,1382 1847,1382z"/>
   <path class="fil0" d="M-214594 390055c0,-2030 437,-1382 -1848,-1382 0,2030 -437,1382 1848,1382z"/>
   <path class="fil0" d="M42343 519222c0,-2028 438,-1382 -1840,-1382 0,2027 -438,1382 1840,1382z"/>
   <path class="fil0" d="M-211824 391444c0,-2027 438,-1382 -1840,-1382 0,2027 -438,1382 1840,1382z"/>
   <path class="fil0" d="M-209053 392833c0,-2025 438,-1382 -1833,-1382 0,2024 -438,1382 1833,1382z"/>
   <path class="fil0" d="M-206275 394222c0,-2025 438,-1382 -1833,-1382 0,2024 -438,1382 1833,1382z"/>
   <path class="fil0" d="M45114 520611c0,-2025 438,-1382 -1833,-1382 0,2024 -438,1382 1833,1382z"/>
   <path class="fil0" d="M47892 521999c0,-2024 438,-1381 -1834,-1381 0,2024 -438,1381 1834,1381z"/>
   <path class="fil0" d="M28003 341775c0,-5242 548,-2022 -1890,-3109l1890 3109z"/>
   <path class="fil0" d="M533558 -516636c-1095,-2136 2255,-1642 -3468,-1642l3468 1642z"/>
   <path class="fil0" d="M29864 412277l-1861 -3074c0,5194 -538,1988 1861,3074z"/>
   <path class="fil0" d="M-667830 -359118l1557 -3605c-2031,1099 -1557,-2232 -1557,3605z"/>
   <path class="fil0" d="M-659074 201166l-1812 -3137c0,5280 -527,2050 1812,3137z"/>
   <path class="fil0" d="M20107 385888l-1826 -3031c0,5135 -526,1946 1826,3031z"/>
   <path class="fil0" d="M558558 323008l-3066 1769c5183,0 1981,511 3066,-1769z"/>
   <path class="fil0" d="M-654865 212277l-1854 -2940c0,5010 -530,1857 1854,2940z"/>
   <path class="fil0" d="M-506719 308304c-1094,-2054 2140,-1582 -3394,-1582l3394 1582z"/>
   <path class="fil0" d="M10370 359499l-1812 -2989c0,5077 -519,1905 1812,2989z"/>
   <path class="fil0" d="M53426 476166l-1812 -2975c0,5058 -519,1891 1812,2975z"/>
   <path class="fil0" d="M679392 -388900c0,-5077 515,-1905 -1798,-2989l1798 2989z"/>
   <path class="fil0" d="M39114 370801c0,-5048 517,-1885 -1805,-2968l1805 2968z"/>
   <path class="fil0" d="M64114 436079c0,-5048 517,-1885 -1805,-2968l1805 2968z"/>
   <path class="fil0" d="M-531345 -512723c-5299,0 -2064,-489 -3152,1679l3152 -1679z"/>
   <path class="fil0" d="M-639157 -376612c2416,-1081 1882,2035 1882,-2849l-1882 2849z"/>
   <path class="fil0" d="M-641442 178171c0,-5522 456,-2302 -1539,-3394l1539 3394z"/>
   <path class="fil0" d="M620 333111l-1784 -2962c0,5039 -510,1878 1784,2962z"/>
   <path class="fil0" d="M-523386 304473c-1080,-2459 2004,-1918 -2769,-1918l2769 1918z"/>
   <path class="fil0" d="M546348 302555c-5183,0 -1981,-491 -3067,1699l3067 -1699z"/>
   <path class="fil0" d="M-652553 -405348l2623 -4597c-3692,3355 -1182,-574 -2623,4597z"/>
   <path class="fil0" d="M660243 -372445l-1685 -3074c0,5193 -487,1988 1685,3074z"/>
   <path class="fil0" d="M658904 -376612l-1734 -2996c0,5087 -498,1912 1734,2996z"/>
   <path class="fil0" d="M43668 449777l-1776 -2933c0,5000 -507,1850 1776,2933z"/>
   <path class="fil0" d="M107170 548522c0,-4970 510,-1829 -1791,-2911l1791 2911z"/>
   <path class="fil0" d="M664229 -355778l-1504 -3400c0,5516 -441,2310 1504,3400z"/>
   <path class="fil0" d="M530007 -493278l-3393 -1498c1094,1945 -2179,1498 3393,1498z"/>
   <path class="fil0" d="M82170 483230c0,-4950 507,-1815 -1784,-2897l1784 2897z"/>
   <path class="fil0" d="M57170 417953c0,-4951 507,-1816 -1784,-2898l1784 2898z"/>
   <path class="fil0" d="M33932 423388l-1762 -2890c0,4941 -501,1809 1762,2890z"/>
   <path class="fil0" d="M540503 328811l-3291 1522c5401,0 2201,447 3291,-1522z"/>
   <path class="fil0" d="M32170 352661c0,-4931 498,-1802 -1756,-2884l1756 2884z"/>
   <path class="fil0" d="M662725 172549l1492 -3327c-1927,1088 -1492,-2106 -1492,3327z"/>
   <path class="fil0" d="M677657 205333c2228,-1082 1735,2050 1735,-2891l-1735 2891z"/>
   <path class="fil0" d="M553178 -486334l-2953 -1691c1083,2174 -2074,1691 2953,1691z"/>
   <path class="fil0" d="M24182 396999l-1735 -2862c0,4902 -491,1781 1735,2862z"/>
   <path class="fil0" d="M100225 530382c0,-4853 492,-1747 -1741,-2827l1741 2827z"/>
   <path class="fil0" d="M680781 -384797c0,-4989 476,-1843 -1671,-2926l1671 2926z"/>
   <path class="fil0" d="M75225 465097c0,-4843 492,-1740 -1741,-2820l1741 2820z"/>
   <path class="fil0" d="M657170 192953l1685 -2898c-2164,1082 -1685,-2053 -1685,2898z"/>
   <path class="fil0" d="M50225 399812c0,-4833 491,-1733 -1741,-2813l1741 2813z"/>
   <path class="fil0" d="M565503 -506786c-1079,-2267 2004,-1770 -2771,-1770l2771 1770z"/>
   <path class="fil0" d="M658558 188828l1650 -2940c-2121,1083 -1650,-2068 -1650,2940z"/>
   <path class="fil0" d="M14452 370611l-1727 -2821c0,4844 -487,1740 1727,2821z"/>
   <path class="fil0" d="M682170 -380644c0,-4970 471,-1830 -1657,-2912l1657 2912z"/>
   <path class="fil0" d="M554392 324453l-2827 1713c4853,0 1747,484 2827,-1713z"/>
   <path class="fil0" d="M57501 487277l-1720 -2792c0,4804 -484,1713 1720,2792z"/>
   <path class="fil0" d="M676614 -396084c0,-4746 490,-1671 -1748,-2750l1748 2750z"/>
   <path class="fil0" d="M4716 344222l-1713 -2778c0,4784 -482,1699 1713,2778z"/>
   <path class="fil0" d="M657466 -380778l-1685 -2785c0,4794 -474,1705 1685,2785z"/>
   <path class="fil0" d="M47751 460888l-1693 -2763c0,4764 -474,1685 1693,2763z"/>
   <path class="fil0" d="M550260 301166c-4833,0 -1733,-465 -2813,1650l2813 -1650z"/>
   <path class="fil0" d="M-5034 317833l-1685 -2750c0,4745 -472,1671 1685,2750z"/>
   <path class="fil0" d="M93281 512228c0,-4716 475,-1651 -1699,-2729l1699 2729z"/>
   <path class="fil0" d="M68281 446950c0,-4716 475,-1650 -1699,-2728l1699 2728z"/>
   <path class="fil0" d="M-523386 -490868l-2652 1756c4609,0 1576,488 2652,-1756z"/>
   <path class="fil0" d="M679145 201166c2098,-1080 1636,1918 1636,-2841l-1636 2841z"/>
   <path class="fil0" d="M43281 381658c0,-4696 474,-1636 -1699,-2714l1699 2714z"/>
   <path class="fil0" d="M-281719 331637c-3057,-3368 278,-1246 -4315,-2693l4315 2693z"/>
   <path class="fil0" d="M38014 434499l-1678 -2721c0,4706 -468,1644 1678,2721z"/>
   <path class="fil0" d="M-534497 300116c-1076,-2207 1956,-1728 -2651,-1728l2651 1728z"/>
   <path class="fil0" d="M680569 196999c2052,-1079 1601,2023 1601,-2820l-1601 2820z"/>
   <path class="fil0" d="M-638664 188723c0,-4863 440,-1754 -1558,-2835l1558 2835z"/>
   <path class="fil0" d="M-521884 328944l-2891 -1523c1081,1954 -1984,1523 2891,1523z"/>
   <path class="fil0" d="M28257 408111l-1643 -2694c0,4667 -457,1617 1643,2694z"/>
   <path class="fil0" d="M-637275 192826c0,-4675 445,-1693 -1593,-2771l1593 2771z"/>
   <path class="fil0" d="M86336 494095c0,-4608 462,-1575 -1664,-2651l1664 2651z"/>
   <path class="fil0" d="M655781 196880l1656 -2658c-2116,1076 -1656,-1960 -1656,2658z"/>
   <path class="fil0" d="M18534 381722l-1642 -2665c0,4627 -456,1588 1642,2665z"/>
   <path class="fil0" d="M61583 498388l-1636 -2622c0,4567 -452,1547 1636,2622z"/>
   <path class="fil0" d="M8805 355333l-1635 -2616c0,4558 -452,1541 1635,2616z"/>
   <path class="fil0" d="M51826 471999l-1601 -2601c0,4538 -441,1527 1601,2601z"/>
   <path class="fil0" d="M-959 328944l-1594 -2588c0,4519 -438,1514 1594,2588z"/>
   <path class="fil0" d="M42096 445611l-1593 -2574c0,4499 -438,1500 1593,2574z"/>
   <polygon class="fil0" points="-267360,363666 -269219,362350 "/>
   <polygon class="fil0" points="-212275,366378 -214098,365055 "/>
   <polygon class="fil0" points="-270138,362277 -271997,360961 "/>
   <polygon class="fil0" points="-209497,367772 -211327,366444 "/>
   <polygon class="fil0" points="-41442,452428 -43098,451166 "/>
   <polygon class="fil0" points="-38664,453817 -40328,452555 "/>
   <polygon class="fil0" points="-253942,345575 -255711,344222 "/>
   <polygon class="fil0" points="-35886,455206 -37557,453944 "/>
   <polygon class="fil0" points="-206719,369161 -208549,367833 "/>
   <polygon class="fil0" points="-30330,458047 -32072,456722 "/>
   <polygon class="fil0" points="-278942,333040 -280669,331722 "/>
   <polygon class="fil0" points="-27553,459443 -29301,458111 "/>
   <polygon class="fil0" points="-24775,460839 -26530,459499 "/>
   <polygon class="fil0" points="-203942,370574 -205777,369222 "/>
   <polygon class="fil0" points="650189,210888 648836,212778 "/>
   <polygon class="fil0" points="-628942,212754 -630264,210888 "/>
   <polygon class="fil0" points="30781,488606 28951,487277 "/>
   <polygon class="fil0" points="-15971,490055 -17830,488739 "/>
   <polygon class="fil0" points="33558,490019 31723,488666 "/>
   <polygon class="fil0" points="25225,485822 23402,484499 "/>
   <polygon class="fil0" points="-13193,491444 -15053,490127 "/>
   <polygon class="fil0" points="36336,491408 34452,490055 "/>
   <polygon class="fil0" points="-10421,492833 -12275,491522 "/>
   <polygon class="fil0" points="22447,484427 20630,483111 "/>
   <polygon class="fil0" points="28003,487217 26173,485888 "/>
   <polygon class="fil0" points="647363,216444 646058,218243 "/>
   <polygon class="fil0" points="19670,483038 17852,481722 "/>
   <polygon class="fil0" points="-645601,231722 -652553,218933 "/>
   <polygon class="fil0" points="-217830,363594 -219648,362277 "/>
   <polygon class="fil0" points="-617830,232455 -622180,226166 "/>
   <polygon class="fil0" points="648794,213666 647447,215526 "/>
   <polygon class="fil0" points="-541442,296927 -543307,295611 "/>
   <polygon class="fil0" points="686336,-364291 683011,-373834 "/>
   <polygon class="fil0" points="578003,315121 576101,316444 "/>
   <polygon class="fil0" points="-276164,334436 -277905,333111 "/>
   <polygon class="fil0" points="-273386,335839 -275149,334499 "/>
   <polygon class="fil0" points="-203617,395611 -205330,394285 "/>
   <polygon class="fil0" points="-628942,-399243 -630302,-397445 "/>
   <polygon class="fil0" points="-627553,-401964 -628885,-400223 "/>
   <polygon class="fil0" points="-270608,337150 -272286,335888 "/>
   <polygon class="fil0" points="-267830,338610 -269579,337277 "/>
   <polygon class="fil0" points="-198069,398388 -199775,397063 "/>
   <polygon class="fil0" points="673836,-402542 672504,-404389 "/>
   <polygon class="fil0" points="-195298,399777 -196997,398452 "/>
   <polygon class="fil0" points="647399,-403001 646058,-404836 "/>
   <polygon class="fil0" points="-215053,364989 -216876,363666 "/>
   <polygon class="fil0" points="-192520,401166 -194219,399841 "/>
   <polygon class="fil0" points="-265053,339999 -266801,338666 "/>
   <polygon class="fil0" points="-648492,-412723 -649775,-411059 "/>
   <polygon class="fil0" points="-189749,402555 -191442,401230 "/>
   <polygon class="fil0" points="-647054,-415501 -648386,-413759 "/>
   <polygon class="fil0" points="-541442,-483472 -543295,-482167 "/>
   <polygon class="fil0" points="-262275,341395 -264030,340055 "/>
   <polygon class="fil0" points="-33108,456595 -34779,455333 "/>
   <polygon class="fil0" points="-259497,342790 -261260,341444 "/>
   <polygon class="fil0" points="-256719,344179 -258482,342833 "/>
   <polygon class="fil0" points="50549,523388 48836,522063 "/>
   <polygon class="fil0" points="53320,524777 51614,523452 "/>
   <polygon class="fil0" points="56098,526166 54392,524841 "/>
   <polygon class="fil0" points="-13664,466416 -15440,465055 "/>
   <polygon class="fil0" points="58869,527555 57170,526230 "/>
   <polygon class="fil0" points="61646,528944 59947,527618 "/>
   <polygon class="fil0" points="64417,530333 62725,529007 "/>
   <polygon class="fil0" points="-16442,465020 -18211,463666 "/>
   <polygon class="fil0" points="-19219,463624 -20982,462277 "/>
   <polygon class="fil0" points="-21997,462228 -23753,460888 "/>
   <polygon class="fil0" points="-264588,365055 -266442,363745 "/>
   <polygon class="fil0" points="-200847,396999 -202553,395674 "/>
  </g>
 </g>
</svg>
