<?xml version="1.0" encoding="UTF-8"?>
<!DOCTYPE svg PUBLIC "-//W3C//DTD SVG 1.1//EN" "http://www.w3.org/Graphics/SVG/1.1/DTD/svg11.dtd">
<!-- Creator: CorelDRAW X8 -->
<svg xmlns="http://www.w3.org/2000/svg" xml:space="preserve" width="210mm" height="297mm" version="1.1" style="shape-rendering:geometricPrecision; text-rendering:geometricPrecision; image-rendering:optimizeQuality; fill-rule:evenodd; clip-rule:evenodd"
viewBox="0 0 21000 29700"
 xmlns:xlink="http://www.w3.org/1999/xlink"
 enable-background="new 0 0 1000 1000">
 <defs>
  <style type="text/css">
   <![CDATA[
    .fil0 {fill:#ED3237}
   ]]>
  </style>
 </defs>
 <g id="Layer_x0020_1">
  <metadata id="CorelCorpID_0Corel-Layer"/>
  <path class="fil0" d="M13197 13082c-214,0 -386,172 -386,387l0 6753c0,639 -519,1157 -1157,1157l-4631 0c-638,0 -1157,-518 -1157,-1157l0 -6756c0,-214 -172,-386 -386,-386 -212,0 -387,172 -387,386l0 6754c0,1065 865,1930 1930,1930l4631 0c1064,0 1930,-865 1930,-1930l0 -6754c0,-212 -175,-384 -387,-384z"/>
  <path class="fil0" d="M7794 20218l0 -5397c0,-214 -172,-386 -387,-386 -212,0 -386,172 -386,386l0 5397c0,212 172,386 386,386 215,0 387,-174 387,-386z"/>
  <path class="fil0" d="M9724 20218l0 -5397c0,-214 -172,-386 -387,-386 -214,0 -386,172 -386,386l0 5397c0,212 172,386 386,386 215,0 387,-174 387,-386z"/>
  <path class="fil0" d="M11654 20218l0 -5397c0,-214 -173,-386 -387,-386 -214,0 -386,172 -386,386l0 5397c0,212 172,386 386,386 214,0 387,-174 387,-386z"/>
  <path class="fil0" d="M13491 9844l-3087 0 0 -401c0,-639 -519,-1157 -1157,-1157 -638,0 -1157,518 -1157,1157l0 401 -3087 0c-638,0 -1157,519 -1157,1157l0 773c0,212 172,386 386,386l10032 0c214,0 386,-172 386,-386l0 -773c-2,-636 -520,-1157 -1159,-1157zm-4630 -399c0,-212 172,-386 386,-386 212,0 386,174 386,386l0 401 -770 0 -2 -401 0 0zm5017 1942l-9261 0 0 -386c0,-212 172,-386 386,-386l8488 0c212,0 387,172 387,386l0 386 0 0z"/>
 </g>
</svg>
