<?xml version="1.0" encoding="UTF-8"?>
<!DOCTYPE svg PUBLIC "-//W3C//DTD SVG 1.1//EN" "http://www.w3.org/Graphics/SVG/1.1/DTD/svg11.dtd">
<!-- Creator: CorelDRAW X8 -->
<svg xmlns="http://www.w3.org/2000/svg" xml:space="preserve" width="210mm" height="297mm" version="1.1" style="shape-rendering:geometricPrecision; text-rendering:geometricPrecision; image-rendering:optimizeQuality; fill-rule:evenodd; clip-rule:evenodd"
viewBox="0 0 21000 29700"
 xmlns:xlink="http://www.w3.org/1999/xlink">
 <defs>
  <style type="text/css">
   <![CDATA[
    .fil0 {fill:#FEFEFE}
   ]]>
  </style>
 </defs>
 <g id="Layer_x0020_1">
  <metadata id="CorelCorpID_0Corel-Layer"/>
  <path class="fil0" d="M10500 12848c250,-315 224,-662 874,-1145 1511,-1125 4074,398 2540,2821l-426 597c-586,819 -2333,2482 -2988,3099 -685,-641 -1370,-1297 -2020,-1985l-704 -777c-84,-114 -151,-202 -229,-301 -291,-367 -584,-735 -778,-1267 -459,-1253 198,-2269 1249,-2510 589,-135 1208,15 1588,307 219,168 364,274 517,505l377 656zm-4233 3l0 603c74,152 53,215 144,475 274,791 791,1399 1325,1991 606,670 848,942 1572,1639 400,384 816,761 1192,1151 593,-619 2429,-2304 2987,-3026 173,-224 366,-431 526,-672 776,-1171 534,-1193 720,-1676l0 -485c-98,-205 -119,-491 -226,-702 -300,-597 -851,-1021 -1579,-1138 -1648,-266 -2253,937 -2428,1082l-417 -495c-852,-837 -2403,-827 -3227,31 -511,531 -434,899 -589,1222z"/>
 </g>
</svg>
