<?xml version="1.0" encoding="UTF-8"?>
<!DOCTYPE svg PUBLIC "-//W3C//DTD SVG 1.1//EN" "http://www.w3.org/Graphics/SVG/1.1/DTD/svg11.dtd">
<!-- Creator: CorelDRAW X8 -->
<svg xmlns="http://www.w3.org/2000/svg" xml:space="preserve" width="210mm" height="297mm" version="1.1" style="shape-rendering:geometricPrecision; text-rendering:geometricPrecision; image-rendering:optimizeQuality; fill-rule:evenodd; clip-rule:evenodd"
viewBox="0 0 21000 29700"
 xmlns:xlink="http://www.w3.org/1999/xlink">
 <defs>
  <style type="text/css">
   <![CDATA[
    .fil0 {fill:#2BE24D}
    .fil3 {fill:#4B9C5A}
    .fil2 {fill:#E3E3E3}
    .fil1 {fill:#FBFBFB}
   ]]>
  </style>
 </defs>
 <g id="Layer_x0020_1">
  <metadata id="CorelCorpID_0Corel-Layer"/>
  <g id="_2104699951888">
   <path class="fil0" d="M7007 10232c-3956,300 -4843,5230 -1897,7112 1199,765 2166,628 3581,628 929,0 1859,0 2788,0 888,0 1918,48 2789,-11 1608,-107 2748,-1163 3254,-2282 973,-2154 -232,-4616 -2387,-5282 -788,-243 -1724,-175 -2597,-175 -930,0 -1859,0 -2788,0 -858,0 -1914,-53 -2743,10z"/>
   <path class="fil1" d="M11902 11082c-305,133 -735,624 -938,901 -228,313 -447,805 -559,1276 -310,1305 233,2896 1196,3628 91,69 149,128 252,205 986,737 2439,889 3585,385 232,-102 437,-248 628,-322 38,-67 328,-279 402,-343 134,-116 286,-262 378,-424 -68,-238 -461,-873 -607,-1165 -356,-712 -931,-1667 -1318,-2421l-1208 -2213c-68,-112 -12,-79 -152,-124 -413,-65 -1135,272 -1512,488 -69,40 -135,67 -147,129z"/>
   <path class="fil2" d="M16846 16388c368,-331 722,-1254 785,-1938 77,-846 -125,-1582 -475,-2195 -687,-1201 -1901,-1856 -3278,-1841 -161,1 -227,-8 -317,51 140,45 84,12 152,124l1208 2213c387,754 962,1709 1318,2421 146,292 539,927 607,1165z"/>
   <path class="fil3" d="M16066 17155c-191,74 -396,220 -628,322 -1146,504 -2599,352 -3585,-385 -103,-77 -161,-136 -252,-205 -963,-732 -1506,-2323 -1196,-3628 112,-471 331,-963 559,-1276 203,-277 633,-768 938,-901l-154 24c-602,332 -1241,1346 -1435,2094 -522,2005 685,4085 2733,4573 551,131 1146,132 1705,4 410,-93 1106,-375 1315,-622z"/>
  </g>
 </g>
</svg>
