<?xml version="1.0" encoding="UTF-8"?>
<!DOCTYPE svg PUBLIC "-//W3C//DTD SVG 1.1//EN" "http://www.w3.org/Graphics/SVG/1.1/DTD/svg11.dtd">
<!-- Creator: CorelDRAW X8 -->
<svg xmlns="http://www.w3.org/2000/svg" xml:space="preserve" width="210mm" height="297mm" version="1.1" style="shape-rendering:geometricPrecision; text-rendering:geometricPrecision; image-rendering:optimizeQuality; fill-rule:evenodd; clip-rule:evenodd"
viewBox="0 0 21000 29700"
 xmlns:xlink="http://www.w3.org/1999/xlink">
 <defs>
  <style type="text/css">
   <![CDATA[
    .fil0 {fill:#060606}
    .fil4 {fill:#9E9E9E}
    .fil3 {fill:#C6C6C6}
    .fil1 {fill:#E3E3E3}
    .fil2 {fill:#FBFBFB}
   ]]>
  </style>
 </defs>
 <g id="Layer_x0020_1">
  <metadata id="CorelCorpID_0Corel-Layer"/>
  <g id="_2104692692016">
   <path class="fil0" d="M6374 10480c-2773,336 -4241,3420 -2863,5789 535,919 1334,1534 2390,1814 724,191 1864,119 2652,119 957,0 4924,51 5539,-29 3190,-412 4583,-4307 2269,-6596 -1328,-1314 -2651,-1133 -4455,-1133 -1009,0 -4842,-48 -5532,36z"/>
   <path class="fil1" d="M7315 10636c425,-2 1094,246 1408,427 488,281 694,487 1015,821 1342,1398 1163,3989 -277,5227 -1306,1124 -2161,864 -2638,998 840,-51 1827,-5 2683,-4 906,0 1812,1 2717,1 862,1 1752,68 2542,-174 2826,-863 3688,-4751 1091,-6661 -332,-243 -1428,-825 -2007,-697 -361,98 -2911,25 -3496,25 -783,0 -2529,35 -3284,3l-177 -38c81,1 174,-1 253,11 124,20 99,7 170,61z"/>
   <path class="fil2" d="M3383 13269c51,198 1114,2086 1210,2279 303,606 817,1454 1156,2121 79,154 39,-18 60,177 643,114 990,229 1735,93 2858,-524 3874,-3888 2195,-5915 -576,-697 -1562,-1343 -2520,-1356 -1141,-45 -1843,183 -2552,701 -299,220 -569,516 -794,829 -144,200 -483,798 -490,1071z"/>
   <path class="fil1" d="M5130 17575l679 271c-21,-195 19,-23 -60,-177 -339,-667 -853,-1515 -1156,-2121 -96,-193 -1159,-2081 -1210,-2279l-84 159c-287,1041 38,2425 765,3246l1066 901z"/>
   <path class="fil3" d="M6535 18089c-144,-94 -807,-135 -1286,-411l-119 -103 -1066 -901c-727,-821 -1052,-2205 -765,-3246l84 -159c7,-273 346,-871 490,-1071 225,-313 495,-609 794,-829 709,-518 1411,-746 2552,-701l96 -32c-71,-54 -46,-41 -170,-61 -79,-12 -172,-10 -253,-11l177 38c755,32 2501,-3 3284,-3 585,0 3135,73 3496,-25 -175,-93 -4803,-35 -5401,-35 -775,1 -1861,-71 -2574,132 -635,181 -1324,569 -1737,1015 -2245,2425 -631,6201 2398,6403z"/>
   <path class="fil4" d="M5809 17846l-679 -271 119 103c479,276 1142,317 1286,411l288 20c477,-134 1332,126 2638,-998 1440,-1238 1619,-3829 277,-5227 -321,-334 -527,-540 -1015,-821 -314,-181 -983,-429 -1408,-427l-96 32c958,13 1944,659 2520,1356 1679,2027 663,5391 -2195,5915 -745,136 -1092,21 -1735,-93z"/>
  </g>
 </g>
</svg>
